<svg width="32" height="32" viewBox="0 0 32 32" fill="none" xmlns="http://www.w3.org/2000/svg">
<path d="M12.9286 17.6625C12.8326 17.6625 10.7206 17.6625 9.76062 17.6625C9.24862 17.6625 9.08862 17.4705 9.08862 16.9905C9.08862 15.7105 9.08862 14.3985 9.08862 13.1185C9.08862 12.6065 9.28062 12.4465 9.76062 12.4465H12.9286C12.9286 12.3505 12.9286 10.4945 12.9286 9.63047C12.9286 8.35047 13.1526 7.13447 13.7926 6.01447C14.4646 4.86247 15.4246 4.09447 16.6406 3.64647C17.4406 3.35847 18.2406 3.23047 19.1046 3.23047H22.2406C22.6886 3.23047 22.8806 3.42247 22.8806 3.87047V7.51847C22.8806 7.96647 22.6886 8.15847 22.2406 8.15847C21.3766 8.15847 20.5126 8.15847 19.6486 8.19047C18.7846 8.19047 18.3366 8.60647 18.3366 9.50247C18.3046 10.4625 18.3366 11.3905 18.3366 12.3825H22.0486C22.5606 12.3825 22.7526 12.5745 22.7526 13.0865V16.9585C22.7526 17.4705 22.5926 17.6305 22.0486 17.6305C20.8966 17.6305 18.4326 17.6305 18.3366 17.6305V28.0625C18.3366 28.6065 18.1766 28.7985 17.6006 28.7985C16.2566 28.7985 14.9446 28.7985 13.6006 28.7985C13.1206 28.7985 12.9286 28.6065 12.9286 28.1265C12.9286 24.7665 12.9286 17.7585 12.9286 17.6625Z" fill="white"/>
</svg>
