<svg width="32" height="32" viewBox="0 0 32 32" fill="none" xmlns="http://www.w3.org/2000/svg">
<path d="M28.8004 28.8009V19.4249C28.8004 14.8169 27.8083 11.2969 22.4323 11.2969C19.8403 11.2969 18.1123 12.7049 17.4083 14.0489H17.3443V11.7129H12.2563V28.8009H17.5683V20.3209C17.5683 18.0809 17.9843 15.9369 20.7364 15.9369C23.4564 15.9369 23.4883 18.4649 23.4883 20.4489V28.7689H28.8004V28.8009Z" fill="white"/>
<path d="M3.61572 11.7109H8.92772V28.7989H3.61572V11.7109Z" fill="white"/>
<path d="M6.27244 3.19922C4.57644 3.19922 3.20044 4.57522 3.20044 6.27122C3.20044 7.96722 4.57644 9.37522 6.27244 9.37522C7.96844 9.37522 9.34444 7.96722 9.34444 6.27122C9.34444 4.57522 7.96844 3.19922 6.27244 3.19922Z" fill="white"/>
</svg>
