<svg width="185" height="60" viewBox="0 0 185 60" fill="none" xmlns="http://www.w3.org/2000/svg">
<path d="M8.16741 22.21H27.713C29.5336 22.21 30.839 23.9557 30.1863 25.6355L25.0337 39.2387C24.2436 41.2809 22.3199 42.5984 20.0528 42.5984H0.438477L8.16741 22.21ZM14.2132 27.3153L10.3315 37.493H17.7169L21.5986 27.3153H14.2132ZM28.3057 42.5984H36.275L39.1605 34.9568H42.836L46.8894 42.5984H54.8588L50.8054 34.9568H51.3894C53.6566 34.9568 55.5802 33.6393 56.3703 31.5972L58.6374 25.6355C59.2901 23.9557 57.9848 22.21 56.1642 22.21H36.0346L28.3057 42.5984ZM41.8742 27.3153H50.4276L49.191 30.5432H40.6376L41.8742 27.3153ZM88.4145 22.21L86.4909 27.3153H70.5177L69.5559 29.9503H82.8497L81.0978 34.1993H67.804L66.6704 37.493H82.6092L80.6856 42.5984H56.7431L64.472 22.21H88.4145ZM85.65 42.5984H93.6194L95.5774 37.493H103.547L101.589 42.5984H109.593L117.321 22.21H97.1232C94.8217 22.21 92.898 23.5275 92.108 25.5696L85.65 42.5984ZM99.4247 27.3153H107.394L105.47 32.4206H97.5011L99.4247 27.3153ZM114.557 42.5984H122.526L127.095 30.3126C127.129 31.0373 127.507 31.6301 127.679 32.0913L130.049 36.8343L136.438 31.8278C136.816 31.4984 137.263 31.2349 137.641 30.7738C136.061 34.9239 134.721 38.4482 133.175 42.5984H141.145L148.873 22.21H140.904L133.381 28.0399L130.255 22.21H122.286L114.557 42.5984Z" fill="#484D54"/>
<path d="M152.442 5.90158C152.869 6.33092 153.291 6.70755 153.975 7.27064C154.816 7.96319 155.479 8.587 155.589 8.78549C155.708 9.00431 155.796 9.25549 155.754 9.25549C155.669 9.25549 155.306 8.96392 154.799 8.4899C154.499 8.20635 154.144 7.91077 154.018 7.83774C153.891 7.76069 153.587 7.55419 153.342 7.37604C152.822 6.9994 152.556 6.87367 152.176 6.82097C151.834 6.77657 151.724 6.71986 151.483 6.4807C151.204 6.20145 151.12 6.1771 150.398 6.1771C150.055 6.1771 149.73 6.18914 149.679 6.20146C149.59 6.22551 149.586 6.23381 149.645 6.33893C149.679 6.39965 149.802 6.51737 149.92 6.60243C150.034 6.6832 150.131 6.77658 150.131 6.80894C150.131 6.84532 150.089 6.96274 150.043 7.07215C149.945 7.28295 149.941 7.28696 149.561 7.33135C149.206 7.37603 149.181 7.38806 149.037 7.61891C148.965 7.74064 148.894 7.83774 148.885 7.83774C148.876 7.83774 148.682 7.74866 148.45 7.64326C148.222 7.53385 147.706 7.31932 147.305 7.16953C146.697 6.93438 146.57 6.89801 146.54 6.9467C146.515 6.97907 146.498 7.16523 146.498 7.35971V7.71229L146.131 7.68795C145.793 7.66761 145.751 7.67563 145.666 7.75267C145.552 7.85807 145.548 7.9228 145.632 8.0809C145.725 8.25504 145.987 8.36847 146.35 8.39281L146.654 8.41687L146.676 8.7978L146.697 9.18245L147.077 9.55106C147.284 9.75786 147.702 10.1952 148.006 10.5315C148.75 11.3497 149.041 11.613 149.667 12.0099C150.266 12.3906 150.524 12.6174 151.378 13.5087C152.581 14.7644 153.663 16.028 155.306 18.106C155.817 18.7501 156.464 19.6898 157.313 21.0225C157.668 21.5773 158.212 22.4036 158.525 22.8573C158.833 23.311 159.357 24.1373 159.687 24.7004C160.016 25.2635 160.439 25.9683 160.629 26.2679C161.064 26.9525 161.389 27.5683 161.478 27.8802L161.55 28.1233L160.646 29.1481C160.147 29.7152 158.487 31.5783 156.954 33.2957C151.449 39.4527 151.415 39.4931 148.209 43.6493C147.791 44.192 147.25 44.8725 147.009 45.1641C146.638 45.6098 146.414 45.9661 146.469 46.0228C146.498 46.0471 146.9 45.9134 147.009 45.8446C147.073 45.804 147.233 45.6381 147.364 45.472C147.499 45.3059 147.749 45.0103 147.918 44.8118C148.087 44.6174 148.365 44.2487 148.539 43.9976C148.974 43.3617 149.447 42.8107 150.216 42.0491C150.579 41.6928 150.955 41.2878 151.048 41.154C151.276 40.8298 151.521 40.6153 151.72 40.5466C151.812 40.5182 151.893 40.4979 151.901 40.5059C151.931 40.5382 151.525 41.0446 150.837 41.8305C150.457 42.2719 150.034 42.7903 149.899 42.9848C149.519 43.5399 149.472 43.5966 148.784 44.3782C147.968 45.2979 145.856 47.8779 145.514 48.3639C145.21 48.7976 144.893 49.2066 144.344 49.8627C144.035 50.2314 143.491 50.9119 143.393 51.0496C143.376 51.07 142.929 50.9686 142.895 50.9402C142.878 50.9242 142.945 50.7904 143.047 50.6487C143.275 50.3287 143.3 50.2881 143.271 50.2881C143.224 50.2881 142.781 50.8308 142.781 50.8875C142.781 50.9199 142.857 51.0253 142.95 51.1227C143.043 51.2198 143.119 51.3169 143.119 51.3372C143.119 51.3859 142.557 52.0825 141.577 53.245C141.159 53.7474 140.795 54.1807 140.774 54.2131C140.698 54.3345 141.289 53.9012 141.598 53.6096C141.775 53.4435 142.164 53.0222 142.464 52.6779C142.76 52.3336 143.397 51.6654 143.879 51.1994C144.357 50.7297 145.062 50.0125 145.442 49.5995C146.101 48.8867 147.563 47.4202 148.12 46.9098C148.26 46.7804 148.488 46.6223 148.623 46.5535C148.868 46.4361 148.872 46.4361 148.843 46.5292C148.741 46.8531 148.365 47.3475 147.58 48.2101C147.423 48.3843 146.967 48.992 146.574 49.5591C145.742 50.7498 145.653 50.8675 145.041 51.5237C144.458 52.1515 143.123 53.7351 142.819 54.1604C142.447 54.6791 142.219 54.9543 141.429 55.8173C141.023 56.2627 140.55 56.8014 140.377 57.0122C140.204 57.2227 139.735 57.7778 139.338 58.2475C138.527 59.1996 137.91 59.9692 137.939 59.9975C137.952 60.0095 138.066 59.9732 138.193 59.9165C138.497 59.7827 138.789 59.5195 139.182 59.0171C139.359 58.7943 139.76 58.3773 140.069 58.0854C140.381 57.7938 140.96 57.2107 141.357 56.7894C141.754 56.3641 142.439 55.6632 142.886 55.2299C143.334 54.7965 143.976 54.12 144.323 53.7311C144.665 53.3424 145.244 52.7386 145.607 52.3944C145.97 52.0501 146.524 51.5033 146.836 51.1791C147.546 50.4422 150.334 47.7484 150.786 47.3595C151.099 47.0882 151.116 47.0799 151.019 47.23C150.803 47.5783 150.592 47.8495 150.292 48.1818C150.123 48.3722 149.793 48.7449 149.561 49.0121C149.333 49.2796 148.767 49.8627 148.31 50.3084C147.563 51.0416 147.462 51.1508 147.301 51.4587C147.145 51.7625 147.039 51.884 146.376 52.5402C145.434 53.4638 145.168 53.7838 145.801 53.2167C146.41 52.6739 146.65 52.5038 147.119 52.285C147.63 52.0421 147.943 51.7909 148.56 51.1144C148.843 50.8025 149.202 50.4502 149.354 50.3287C149.814 49.9681 150.672 49.1338 151.204 48.5341C151.517 48.1858 151.893 47.8212 152.197 47.5703C152.48 47.3391 152.784 47.0476 152.919 46.8774C153.046 46.7153 153.591 46.1525 154.127 45.6298C154.664 45.1074 155.247 44.4999 155.424 44.2851C155.775 43.8598 155.923 43.7343 156.214 43.6086C156.489 43.4872 156.51 43.4952 156.459 43.6776C156.392 43.9285 156.257 44.0826 155.809 44.4309C155.576 44.609 155.226 44.9333 155.032 45.1438C154.609 45.6015 154.014 46.2213 153.008 47.2501C152.603 47.6634 151.969 48.3276 151.593 48.7285C151.217 49.1255 150.664 49.7049 150.359 50.0085C150.051 50.3164 149.629 50.7904 149.417 51.066C148.847 51.8072 148.64 52.0097 148.256 52.2242C147.901 52.4227 147.901 52.4674 148.264 52.4147C148.437 52.3904 148.492 52.35 148.86 51.9814C149.084 51.7545 149.523 51.3776 149.836 51.1347C150.199 50.8552 150.537 50.5556 150.765 50.3004C151.289 49.721 151.605 49.4051 151.829 49.2513C151.935 49.1742 152.125 48.9717 152.252 48.7976C152.413 48.5707 152.995 47.9873 154.326 46.7277L156.172 44.9696V45.1317C156.172 45.2572 156.193 45.3019 156.265 45.3342C156.345 45.3666 156.388 45.3343 156.637 45.067C157 44.6741 157.376 44.3338 157.794 44.0179C157.976 43.8761 158.267 43.641 158.436 43.4912C158.796 43.1833 163.075 39.0154 163.586 38.4766C163.772 38.2822 164.236 37.8649 164.621 37.5489C165.352 36.9455 165.584 36.7226 165.85 36.346L166.015 36.1192L165.952 35.9247C165.846 35.5884 165.736 35.4507 167.198 37.4679C169.137 40.1453 169.813 40.9879 170.822 42.0007C171.114 42.2922 171.633 42.847 171.984 43.236C172.664 43.9935 172.981 44.3095 174.312 45.5287C176.365 47.4162 177.003 47.8942 175.465 46.3994C174.785 45.7352 174.578 45.48 174.485 45.1925L174.455 45.0994L174.641 45.1845C174.747 45.2369 175.047 45.4881 175.351 45.7879C175.68 46.1079 175.972 46.351 176.124 46.4361C176.259 46.5088 176.551 46.7073 176.77 46.8734C177.303 47.2784 177.594 47.4405 177.881 47.4932C178.346 47.5823 178.439 47.6187 178.692 47.8295C179.132 48.1898 179.115 48.1818 179.681 48.1818C180.217 48.1818 180.441 48.1454 180.585 48.028C180.674 47.959 180.67 47.9549 180.306 47.7201C179.415 47.145 178.781 46.6346 178.523 46.282L178.418 46.1442L178.692 46.1686C178.84 46.1809 179.06 46.2213 179.182 46.2577C179.373 46.3104 179.423 46.351 179.609 46.5939C179.977 47.0679 179.972 47.0639 180.45 47.0355L180.86 47.0072L181.117 46.764L181.375 46.5171L182.009 46.7964C182.621 47.0679 183.255 47.2988 183.538 47.3475C183.643 47.3635 183.694 47.3515 183.762 47.2867C183.842 47.2097 183.846 47.1733 183.821 46.9261L183.791 46.6466L184.176 46.6709L184.56 46.6953V46.4644C184.56 46.3387 184.531 46.1809 184.497 46.1202C184.429 45.9904 184.29 45.954 183.855 45.954C183.707 45.954 183.588 45.9417 183.588 45.9217C183.588 45.9054 183.559 45.7232 183.525 45.5164L183.462 45.1358L182.828 44.4349C181.7 43.1833 181.236 42.7499 180.61 42.357C179.985 41.964 179.765 41.7698 178.925 40.8908C177.902 39.8254 176.939 38.7035 175.435 36.8401C174.447 35.6168 173.805 34.6974 172.444 32.5464C172.153 32.0887 171.76 31.5056 171.57 31.2504C171.194 30.748 170.958 30.3671 170.958 30.266C170.958 30.2336 171.165 29.9988 171.414 29.7476C172.005 29.1481 172.25 28.8646 172.499 28.4716C172.614 28.2934 172.88 27.9772 173.087 27.7667C173.298 27.5519 173.632 27.1593 173.83 26.8917C174.029 26.6205 174.354 26.1748 174.557 25.8953C174.759 25.6201 175.047 25.2555 175.195 25.0933C175.342 24.9272 175.537 24.656 175.625 24.4939C175.714 24.3318 175.997 23.9511 176.251 23.6432C176.77 23.0315 177.252 22.3956 177.831 21.5693C178.042 21.2694 178.393 20.7997 178.616 20.5282C179.106 19.9247 179.233 19.7142 179.406 19.2198C179.563 18.7705 179.694 18.5516 180.213 17.8751C180.424 17.5996 180.665 17.2513 180.745 17.0975C180.826 16.9434 181.033 16.5911 181.206 16.3156C181.81 15.3475 181.954 14.9829 181.932 14.4565L181.92 14.1366L181.725 14.3794C181.62 14.5132 181.328 14.9345 181.083 15.3152C180.834 15.6958 180.45 16.2509 180.221 16.5508C179.998 16.8503 179.66 17.3 179.47 17.5512C179.28 17.8024 178.912 18.3491 178.646 18.7662C178.097 19.6372 177.979 19.7993 177.518 20.2973C177.045 20.8117 176.741 21.2087 175.98 22.2862C175.321 23.2179 174.861 23.8214 174.569 24.1416C174.426 24.2994 174.422 24.2994 174.468 24.182C174.59 23.8537 174.819 23.4691 175.3 22.7846C175.592 22.3713 176.039 21.6907 176.289 21.2694C176.808 20.4108 177.269 19.6899 178.215 18.2478C179.026 17.0205 179.71 15.9593 179.803 15.7892C179.842 15.7161 179.93 15.4206 179.998 15.1247C180.103 14.663 180.162 14.5212 180.416 14.0595C180.796 13.3587 181.193 12.7432 181.628 12.1801L181.983 11.7264H181.776C181.472 11.7264 181.379 11.7751 180.974 12.1394C180.576 12.496 180.019 12.9253 179.55 13.2292L179.246 13.4237L179.153 13.0914C179.098 12.909 179.043 12.7472 179.026 12.7308C179.014 12.7105 178.861 12.8849 178.688 13.1158C178.515 13.3426 178.223 13.6989 178.038 13.9097C177.856 14.1162 177.303 14.8818 176.808 15.6107C175.993 16.814 175.697 17.2353 175.068 18.0656C174.95 18.2194 174.696 18.6204 174.506 18.9566C174.316 19.2889 174.105 19.6331 174.041 19.7262C173.885 19.945 173.543 20.3056 173.446 20.3581C173.37 20.3947 173.365 20.3947 173.437 20.2446C173.589 19.9327 173.796 19.6211 174.231 19.058C174.477 18.7378 174.751 18.3572 174.844 18.2114C174.996 17.9602 175.004 17.9198 175.03 17.5025C175.063 16.9801 175.11 16.8707 175.668 16.0848C176.179 15.3679 176.466 14.744 176.796 13.6666C176.956 13.1441 177.058 12.9577 177.412 12.5283C177.953 11.8762 178.105 11.5886 178.202 11.0378C178.291 10.5435 178.384 10.349 178.87 9.6685C179.284 9.08937 179.474 8.77747 179.432 8.73708C179.389 8.70042 179.081 9.0043 178.802 9.35659C178.663 9.53503 178.261 9.96437 177.907 10.3086C177.218 10.9892 176.699 11.5683 176.048 12.3946C175.469 13.1198 175.203 13.4357 174.595 14.0959C174.307 14.4078 173.919 14.8535 173.733 15.0883C173.513 15.3638 172.884 15.9997 171.955 16.8907C170.434 18.3451 169.99 18.8392 169.513 19.5885C169.209 20.0665 169.209 20.0665 168.186 21.225C167.548 21.9459 166.91 22.5821 166.822 22.5821C166.754 22.5821 166.501 22.2578 166.34 21.9743C165.098 19.7506 164.431 18.7054 163.299 17.1986C163.088 16.9191 162.678 16.3603 162.39 15.9633C161.005 14.0472 160.156 13.0224 158.96 11.8275C158.715 11.5806 158.344 11.1917 158.137 10.9568C157.57 10.3167 155.94 8.76944 154.799 7.79735C154.242 7.31933 153.549 6.69953 153.257 6.41598C152.797 5.97032 152.37 5.65039 152.226 5.65039C152.206 5.65039 152.303 5.76381 152.442 5.90158ZM150.845 7.17755C151.158 7.43275 151.555 7.8174 151.737 8.03622L151.88 8.21437L151.614 8.19003C151.162 8.14162 150.917 8.05656 150.744 7.87411C150.587 7.70799 150.224 7.18557 150.203 7.1005C150.195 7.05611 150.351 7.00341 150.528 6.9911C150.57 6.9911 150.714 7.07215 150.845 7.17755ZM173.991 25.0366C174.016 25.2798 173.627 25.5634 173.564 25.3405C173.517 25.1704 173.758 24.8705 173.915 24.8989C173.953 24.9069 173.982 24.9636 173.991 25.0366Z" fill="#484D54"/>
<path d="M4.044 3.54H5.172V12H4.044V3.54ZM0.18 3H9.036V3.996H0.18V3ZM11.3898 12.156C10.6138 12.156 9.92578 12.008 9.32578 11.712C8.73378 11.408 8.26578 10.992 7.92178 10.464C7.58578 9.928 7.41778 9.312 7.41778 8.616C7.41778 7.912 7.57778 7.296 7.89778 6.768C8.21778 6.24 8.66178 5.828 9.22978 5.532C9.79778 5.236 10.4498 5.088 11.1858 5.088C11.9138 5.088 12.5498 5.248 13.0938 5.568C13.6378 5.888 14.0578 6.34 14.3538 6.924C14.6578 7.5 14.8098 8.172 14.8098 8.94H8.25778V8.064H14.3418L13.6938 8.46C13.6698 7.956 13.5498 7.52 13.3338 7.152C13.1178 6.784 12.8258 6.5 12.4578 6.3C12.0898 6.1 11.6618 6 11.1738 6C10.6458 6 10.1858 6.108 9.79378 6.324C9.40178 6.532 9.09378 6.828 8.86978 7.212C8.65378 7.596 8.54578 8.048 8.54578 8.568C8.54578 9.112 8.66978 9.584 8.91778 9.984C9.16578 10.384 9.51378 10.692 9.96178 10.908C10.4098 11.124 10.9378 11.232 11.5458 11.232C12.0978 11.232 12.6378 11.14 13.1658 10.956C13.7018 10.772 14.1818 10.52 14.6058 10.2V11.064C14.1898 11.4 13.6938 11.668 13.1178 11.868C12.5418 12.06 11.9658 12.156 11.3898 12.156ZM23.3573 9.432C23.2693 9.968 23.0493 10.44 22.6973 10.848C22.3533 11.256 21.9133 11.576 21.3773 11.808C20.8413 12.04 20.2493 12.156 19.6013 12.156C18.8493 12.156 18.1853 12.008 17.6093 11.712C17.0333 11.408 16.5813 10.992 16.2533 10.464C15.9333 9.928 15.7733 9.312 15.7733 8.616C15.7733 7.92 15.9333 7.308 16.2533 6.78C16.5813 6.244 17.0333 5.828 17.6093 5.532C18.1853 5.236 18.8493 5.088 19.6013 5.088C20.2493 5.088 20.8413 5.204 21.3773 5.436C21.9133 5.66 22.3533 5.976 22.6973 6.384C23.0493 6.792 23.2693 7.268 23.3573 7.812H22.2173C22.0973 7.252 21.7973 6.812 21.3173 6.492C20.8453 6.164 20.2733 6 19.6013 6C19.0573 6 18.5813 6.108 18.1733 6.324C17.7733 6.54 17.4613 6.844 17.2373 7.236C17.0133 7.62 16.9013 8.08 16.9013 8.616C16.9013 9.152 17.0133 9.616 17.2373 10.008C17.4613 10.4 17.7733 10.704 18.1733 10.92C18.5813 11.128 19.0573 11.232 19.6013 11.232C20.2813 11.232 20.8573 11.068 21.3293 10.74C21.8093 10.412 22.1053 9.976 22.2173 9.432H23.3573ZM24.6656 2.76H25.7696V12H24.6656V2.76ZM28.5536 5.088C29.1856 5.088 29.7216 5.216 30.1616 5.472C30.6016 5.72 30.9376 6.084 31.1696 6.564C31.4016 7.036 31.5176 7.608 31.5176 8.28V12H30.4136V8.472C30.4136 7.664 30.2296 7.056 29.8616 6.648C29.4936 6.232 28.9496 6.024 28.2296 6.024C27.7416 6.024 27.3096 6.136 26.9336 6.36C26.5656 6.584 26.2776 6.896 26.0696 7.296C25.8696 7.688 25.7696 8.148 25.7696 8.676L25.3256 8.364C25.3816 7.692 25.5536 7.112 25.8416 6.624C26.1296 6.136 26.5056 5.76 26.9696 5.496C27.4416 5.224 27.9696 5.088 28.5536 5.088ZM32.9083 5.244H34.0123L34.3963 7.536V12H33.2923V7.38L32.9083 5.244ZM37.1923 5.088C37.8243 5.088 38.3603 5.216 38.8003 5.472C39.2403 5.72 39.5763 6.084 39.8083 6.564C40.0403 7.036 40.1563 7.608 40.1563 8.28V12H39.0523V8.472C39.0523 7.664 38.8643 7.056 38.4883 6.648C38.1203 6.232 37.5803 6.024 36.8683 6.024C36.3723 6.024 35.9363 6.136 35.5603 6.36C35.1923 6.584 34.9043 6.896 34.6963 7.296C34.4963 7.688 34.3963 8.148 34.3963 8.676L33.9523 8.364C34.0083 7.692 34.1803 7.112 34.4683 6.624C34.7563 6.136 35.1323 5.76 35.5963 5.496C36.0683 5.224 36.6003 5.088 37.1923 5.088ZM41.8453 5.22L42.3973 5.316L42.9493 5.22V12H41.8453V5.22ZM42.3853 4.224C42.1613 4.224 41.9693 4.156 41.8093 4.02C41.6573 3.876 41.5813 3.696 41.5813 3.48C41.5813 3.272 41.6573 3.1 41.8093 2.964C41.9693 2.82 42.1613 2.748 42.3853 2.748C42.6253 2.748 42.8213 2.82 42.9733 2.964C43.1253 3.1 43.2013 3.272 43.2013 3.48C43.2013 3.696 43.1253 3.876 42.9733 4.02C42.8213 4.156 42.6253 4.224 42.3853 4.224ZM51.9158 9.432C51.8278 9.968 51.6078 10.44 51.2558 10.848C50.9118 11.256 50.4718 11.576 49.9358 11.808C49.3998 12.04 48.8078 12.156 48.1598 12.156C47.4078 12.156 46.7438 12.008 46.1678 11.712C45.5918 11.408 45.1398 10.992 44.8118 10.464C44.4918 9.928 44.3318 9.312 44.3318 8.616C44.3318 7.92 44.4918 7.308 44.8118 6.78C45.1398 6.244 45.5918 5.828 46.1678 5.532C46.7438 5.236 47.4078 5.088 48.1598 5.088C48.8078 5.088 49.3998 5.204 49.9358 5.436C50.4718 5.66 50.9118 5.976 51.2558 6.384C51.6078 6.792 51.8278 7.268 51.9158 7.812H50.7758C50.6558 7.252 50.3558 6.812 49.8758 6.492C49.4038 6.164 48.8318 6 48.1598 6C47.6158 6 47.1398 6.108 46.7318 6.324C46.3318 6.54 46.0198 6.844 45.7958 7.236C45.5718 7.62 45.4598 8.08 45.4598 8.616C45.4598 9.152 45.5718 9.616 45.7958 10.008C46.0198 10.4 46.3318 10.704 46.7318 10.92C47.1398 11.128 47.6158 11.232 48.1598 11.232C48.8398 11.232 49.4158 11.068 49.8878 10.74C50.3678 10.412 50.6638 9.976 50.7758 9.432H51.9158ZM59.6442 12L59.4042 9.444L59.7042 8.616L59.4042 7.8L59.6442 5.244H60.7722L60.4602 8.616L60.7722 12H59.6442ZM60.0762 8.616C59.9002 9.32 59.6282 9.94 59.2602 10.476C58.9002 11.004 58.4602 11.416 57.9402 11.712C57.4282 12.008 56.8602 12.156 56.2362 12.156C55.5722 12.156 54.9842 12.008 54.4722 11.712C53.9602 11.408 53.5562 10.992 53.2602 10.464C52.9722 9.928 52.8282 9.312 52.8282 8.616C52.8282 7.912 52.9722 7.296 53.2602 6.768C53.5562 6.24 53.9602 5.828 54.4722 5.532C54.9842 5.236 55.5722 5.088 56.2362 5.088C56.8602 5.088 57.4282 5.236 57.9402 5.532C58.4602 5.828 58.9042 6.24 59.2722 6.768C59.6402 7.296 59.9082 7.912 60.0762 8.616ZM53.9562 8.616C53.9562 9.128 54.0602 9.58 54.2682 9.972C54.4842 10.364 54.7762 10.672 55.1442 10.896C55.5202 11.112 55.9442 11.22 56.4162 11.22C56.8962 11.22 57.3362 11.112 57.7362 10.896C58.1442 10.672 58.5042 10.364 58.8162 9.972C59.1362 9.58 59.3962 9.128 59.5962 8.616C59.3962 8.104 59.1362 7.652 58.8162 7.26C58.5042 6.868 58.1442 6.564 57.7362 6.348C57.3362 6.124 56.8962 6.012 56.4162 6.012C55.9442 6.012 55.5202 6.124 55.1442 6.348C54.7762 6.564 54.4842 6.868 54.2682 7.26C54.0602 7.652 53.9562 8.104 53.9562 8.616ZM62.4234 2.76H63.5274V12H62.4234V2.76ZM73.4344 3C74.0664 3 74.6144 3.112 75.0784 3.336C75.5424 3.56 75.9024 3.876 76.1584 4.284C76.4144 4.684 76.5424 5.148 76.5424 5.676C76.5424 6.204 76.4144 6.672 76.1584 7.08C75.9024 7.48 75.5424 7.796 75.0784 8.028C74.6144 8.252 74.0664 8.364 73.4344 8.364H69.3304V7.38H73.4104C74.0184 7.38 74.4984 7.228 74.8504 6.924C75.2104 6.612 75.3904 6.196 75.3904 5.676C75.3904 5.156 75.2104 4.744 74.8504 4.44C74.4984 4.136 74.0184 3.984 73.4104 3.984H69.4504L69.9544 3.432V12H68.8264V3H73.4344ZM83.9841 12L83.7441 9.444L84.0441 8.616L83.7441 7.8L83.9841 5.244H85.1121L84.8001 8.616L85.1121 12H83.9841ZM84.4161 8.616C84.2401 9.32 83.9681 9.94 83.6001 10.476C83.2401 11.004 82.8001 11.416 82.2801 11.712C81.7681 12.008 81.2001 12.156 80.5761 12.156C79.9121 12.156 79.3241 12.008 78.8121 11.712C78.3001 11.408 77.8961 10.992 77.6001 10.464C77.3121 9.928 77.1681 9.312 77.1681 8.616C77.1681 7.912 77.3121 7.296 77.6001 6.768C77.8961 6.24 78.3001 5.828 78.8121 5.532C79.3241 5.236 79.9121 5.088 80.5761 5.088C81.2001 5.088 81.7681 5.236 82.2801 5.532C82.8001 5.828 83.2441 6.24 83.6121 6.768C83.9801 7.296 84.2481 7.912 84.4161 8.616ZM78.2961 8.616C78.2961 9.128 78.4001 9.58 78.6081 9.972C78.8241 10.364 79.1161 10.672 79.4841 10.896C79.8601 11.112 80.2841 11.22 80.7561 11.22C81.2361 11.22 81.6761 11.112 82.0761 10.896C82.4841 10.672 82.8441 10.364 83.1561 9.972C83.4761 9.58 83.7361 9.128 83.9361 8.616C83.7361 8.104 83.4761 7.652 83.1561 7.26C82.8441 6.868 82.4841 6.564 82.0761 6.348C81.6761 6.124 81.2361 6.012 80.7561 6.012C80.2841 6.012 79.8601 6.124 79.4841 6.348C79.1161 6.564 78.8241 6.868 78.6081 7.26C78.4001 7.652 78.2961 8.104 78.2961 8.616ZM86.4513 5.244H87.5553L87.9393 7.548V12H86.8353V7.344L86.4513 5.244ZM91.5273 5.22V6.216C91.3753 6.168 91.1953 6.132 90.9873 6.108C90.7873 6.084 90.5953 6.072 90.4113 6.072C89.9313 6.072 89.5033 6.18 89.1273 6.396C88.7513 6.612 88.4593 6.928 88.2513 7.344C88.0433 7.752 87.9393 8.236 87.9393 8.796L87.6273 8.364C87.6433 7.892 87.7193 7.456 87.8553 7.056C87.9913 6.656 88.1833 6.312 88.4313 6.024C88.6873 5.728 88.9913 5.5 89.3433 5.34C89.7033 5.172 90.1073 5.088 90.5553 5.088C90.7233 5.088 90.8953 5.1 91.0713 5.124C91.2553 5.148 91.4073 5.18 91.5273 5.22ZM91.8058 6.132V5.604L93.2938 5.328L93.7378 3.492H94.3978V5.244H97.6858V6.132H94.3978V9.564C94.3978 10.172 94.5298 10.6 94.7938 10.848C95.0658 11.088 95.4818 11.208 96.0418 11.208C96.4098 11.208 96.7298 11.164 97.0018 11.076C97.2818 10.988 97.5538 10.86 97.8178 10.692V11.664C97.6258 11.784 97.3418 11.896 96.9658 12C96.5978 12.104 96.2138 12.156 95.8138 12.156C95.2058 12.156 94.7138 12.052 94.3378 11.844C93.9698 11.628 93.7018 11.34 93.5338 10.98C93.3738 10.612 93.2938 10.196 93.2938 9.732V6.132H91.8058ZM98.6974 5.244H99.8014L100.185 7.536V12H99.0814V7.38L98.6974 5.244ZM102.981 5.088C103.613 5.088 104.149 5.216 104.589 5.472C105.029 5.72 105.365 6.084 105.597 6.564C105.829 7.036 105.945 7.608 105.945 8.28V12H104.841V8.472C104.841 7.664 104.653 7.056 104.277 6.648C103.909 6.232 103.369 6.024 102.657 6.024C102.161 6.024 101.725 6.136 101.349 6.36C100.981 6.584 100.693 6.896 100.485 7.296C100.285 7.688 100.185 8.148 100.185 8.676L99.7414 8.364C99.7974 7.692 99.9694 7.112 100.257 6.624C100.545 6.136 100.921 5.76 101.385 5.496C101.857 5.224 102.389 5.088 102.981 5.088ZM111.198 12.156C110.422 12.156 109.734 12.008 109.134 11.712C108.542 11.408 108.074 10.992 107.73 10.464C107.394 9.928 107.226 9.312 107.226 8.616C107.226 7.912 107.386 7.296 107.706 6.768C108.026 6.24 108.47 5.828 109.038 5.532C109.606 5.236 110.258 5.088 110.994 5.088C111.722 5.088 112.358 5.248 112.902 5.568C113.446 5.888 113.866 6.34 114.162 6.924C114.466 7.5 114.618 8.172 114.618 8.94H108.066V8.064H114.15L113.502 8.46C113.478 7.956 113.358 7.52 113.142 7.152C112.926 6.784 112.634 6.5 112.266 6.3C111.898 6.1 111.47 6 110.982 6C110.454 6 109.994 6.108 109.602 6.324C109.21 6.532 108.902 6.828 108.678 7.212C108.462 7.596 108.354 8.048 108.354 8.568C108.354 9.112 108.478 9.584 108.726 9.984C108.974 10.384 109.322 10.692 109.77 10.908C110.218 11.124 110.746 11.232 111.354 11.232C111.906 11.232 112.446 11.14 112.974 10.956C113.51 10.772 113.99 10.52 114.414 10.2V11.064C113.998 11.4 113.502 11.668 112.926 11.868C112.35 12.06 111.774 12.156 111.198 12.156ZM115.678 5.244H116.782L117.166 7.548V12H116.062V7.344L115.678 5.244ZM120.754 5.22V6.216C120.602 6.168 120.422 6.132 120.214 6.108C120.014 6.084 119.822 6.072 119.638 6.072C119.158 6.072 118.73 6.18 118.354 6.396C117.978 6.612 117.686 6.928 117.478 7.344C117.27 7.752 117.166 8.236 117.166 8.796L116.854 8.364C116.87 7.892 116.946 7.456 117.082 7.056C117.218 6.656 117.41 6.312 117.658 6.024C117.914 5.728 118.218 5.5 118.57 5.34C118.93 5.172 119.334 5.088 119.782 5.088C119.95 5.088 120.122 5.1 120.298 5.124C120.482 5.148 120.634 5.18 120.754 5.22Z" fill="#484D54"/>
</svg>
