<svg width="446" height="100" viewBox="0 0 446 100" fill="none" xmlns="http://www.w3.org/2000/svg">
<path d="M28.9286 18.6724C22.4209 16.7389 15.5774 20.4449 13.6415 26.9509L0.513709 71.0699C-1.42265 77.5774 2.28393 84.4223 8.79255 86.3583L52.928 99.4864C59.4322 101.421 66.2743 97.7214 68.2155 91.22L81.3889 47.0997C83.3331 40.5882 79.6246 33.7348 73.1097 31.7991L28.9286 18.6724Z" fill="#FDCF2D"/>
<path d="M47.0178 0.512574C40.51 -1.42112 33.6663 2.28493 31.7304 8.79113L18.5992 52.923C16.6642 59.4262 20.3645 66.2672 26.8669 68.208L71.0061 81.3829C77.514 83.3254 84.3645 79.6242 86.3056 73.1168L99.4839 28.9393C101.426 22.4286 97.7177 15.5772 91.204 13.6418L47.0178 0.512574Z" fill="#05B0FD"/>
<path d="M28.8016 18.6351L73.1093 31.7991C79.6245 33.7347 83.3329 40.5884 81.3885 47.1L71.1398 81.4221L26.8667 68.2061C20.3644 66.2651 16.6643 59.4241 18.5994 52.921L28.8016 18.6351Z" fill="#47B972"/>
<path d="M132.2 99.9797V27.6989H173.211C175.504 27.6989 177.614 28.267 179.481 29.4237C181.429 30.5803 182.931 32.082 184.026 33.9691C185.183 35.8563 185.751 37.9464 185.751 40.2394V67.8774C185.751 70.1907 185.183 72.2808 184.026 74.1477C182.931 76.0349 181.429 77.5365 179.481 78.6932C177.594 79.8498 175.504 80.418 173.211 80.418H144.112V99.9594L132.2 99.9797ZM145.187 68.5268H172.744C173.048 68.5268 173.292 68.4456 173.474 68.263C173.718 68.0195 173.84 67.7557 173.84 67.4513V40.7062C173.84 40.4018 173.718 40.1583 173.474 39.9756C173.292 39.7321 173.048 39.6104 172.744 39.6104H145.187C144.883 39.6104 144.619 39.7321 144.375 39.9756C144.193 40.1583 144.112 40.4018 144.112 40.7062V67.431C144.112 67.7354 144.193 67.9992 144.375 68.2427C144.619 68.4456 144.883 68.5268 145.187 68.5268Z" fill="#47B972"/>
<path d="M207.2 11.526V27.6989H236.299C238.612 27.6989 240.702 28.267 242.569 29.4237C244.436 30.5804 245.958 32.082 247.115 33.9692C248.271 35.8563 248.84 37.9464 248.84 40.2394V80.418H236.928V40.7062C236.928 40.4018 236.806 40.1583 236.563 39.9756C236.38 39.7321 236.137 39.6104 235.832 39.6104H208.275C207.971 39.6104 207.707 39.7321 207.464 39.9756C207.281 40.1583 207.2 40.4018 207.2 40.7062V80.4383H195.288V11.526" fill="#47B972"/>
<path d="M266.474 99.9797V87.987H298.211C298.515 87.987 298.758 87.8652 298.941 87.6217C299.185 87.4391 299.306 87.1956 299.306 86.8912V80.4383H270.207C267.955 80.4383 265.865 79.8701 263.937 78.7135C262.05 77.5568 260.548 76.0552 259.392 74.168C258.235 72.2808 257.667 70.1907 257.667 67.8977V27.8815H269.578V67.431C269.578 67.7354 269.659 67.9992 269.842 68.2427C270.086 68.4253 270.37 68.5065 270.654 68.5065H298.211C298.515 68.5065 298.758 68.4253 298.941 68.2427C299.185 67.9992 299.306 67.7354 299.306 67.431V27.8815H311.218V87.4391C311.218 89.7524 310.67 91.8425 309.574 93.7094C308.478 95.6574 306.977 97.1591 305.029 98.2548C303.142 99.4115 301.051 99.9797 298.758 99.9797H266.474V99.9797Z" fill="#47B972"/>
<path d="M376.092 83.7662V87.4391C376.092 89.793 375.544 91.9237 374.448 93.8109C373.353 95.698 371.851 97.1794 369.903 98.2751C368.016 99.4318 365.926 100 363.633 100H331.348V88.0073H363.085C363.389 88.0073 363.633 87.8855 363.815 87.642C364.059 87.4594 364.181 87.2159 364.181 86.9115V83.7865V80.4586H335.081C332.829 80.4586 330.739 79.8904 328.811 78.7338C326.924 77.5771 325.422 76.0755 324.266 74.1883C323.109 72.3011 322.541 70.211 322.541 67.918V40.2597C322.541 37.9464 323.109 35.8563 324.266 33.9894C325.422 32.1023 326.924 30.6006 328.811 29.444C330.759 28.2873 332.849 27.7191 335.081 27.7191H363.633C365.926 27.7191 368.036 28.2873 369.903 29.444C371.79 30.6006 373.271 32.1023 374.367 33.9894C375.524 35.8766 376.092 37.9667 376.092 40.2597V83.7662ZM335.528 68.5268H363.085C363.389 68.5268 363.633 68.4456 363.815 68.263C364.059 68.0195 364.181 67.7557 364.181 67.4513V40.7062C364.181 40.4018 364.059 40.1583 363.815 39.9756C363.633 39.7321 363.389 39.6104 363.085 39.6104H335.528C335.224 39.6104 334.96 39.7321 334.716 39.9756C334.534 40.1583 334.452 40.4018 334.452 40.7062V67.431C334.452 67.7354 334.554 67.9992 334.716 68.2427C334.96 68.4456 335.224 68.5268 335.528 68.5268Z" fill="#47B972"/>
<path d="M388.328 80.4383V27.6989H400.24V80.4383H388.328Z" fill="#47B972"/>
<path d="M387.496 0L400.686 3.9164C402.939 4.58604 404.217 6.96023 403.547 9.21266L400.524 19.3182L387.354 15.3815C385.102 14.7119 383.823 12.3377 384.493 10.0852L387.496 0Z" fill="#47B972"/>
<path d="M425.077 80.4383C422.764 80.4383 420.694 79.8701 418.807 78.7135C416.92 77.5568 415.418 76.0552 414.262 74.168C413.105 72.2808 412.537 70.1907 412.537 67.8977V11.526H424.448V27.6989H445.004V39.6104H424.448V67.431C424.448 67.7354 424.55 67.9992 424.712 68.2427C424.956 68.4253 425.219 68.5065 425.524 68.5065H444.984V80.418H425.077V80.4383Z" fill="#47B972"/>
</svg>
