<svg width="226" height="78" viewBox="0 0 226 78" fill="none" xmlns="http://www.w3.org/2000/svg">
<g clip-path="url(#clip0_52_1392)">
<path d="M-1.4126 15.8896V76.5563H1.38415H4.2374V15.8896H-1.4126Z" fill="#484D54"/>
<path d="M88.9873 15.8896V59.223H91.7841H94.6373V15.8896H88.9873Z" fill="#484D54"/>
<path d="M108.762 -1.44434V59.2223H111.559H114.412V-1.44434H108.762Z" fill="#484D54"/>
<path d="M142.663 15.8896H135.6L120.062 34.6674V40.4452L135.6 59.223H142.663L124.922 37.5563L142.663 15.8896Z" fill="#484D54"/>
<path d="M9.88745 52.0003C11.8932 53.3869 14.5205 53.6758 17.289 53.6758C20.0575 53.6758 22.4305 52.9825 24.408 51.5958C26.3855 50.2091 27.8827 48.3025 28.9279 45.8758C29.945 43.4491 30.4817 40.6758 30.4817 37.5558C30.4817 34.4358 29.9732 31.6625 28.9279 29.2358C27.8827 26.8091 26.3855 24.9025 24.408 23.5158C22.4305 22.1291 20.0575 21.4358 17.289 21.4358C14.5205 21.4358 11.8932 21.7247 9.88745 23.1114V17.3336C12.4865 15.7736 15.2267 15.3691 18.4472 15.3691C22.2892 15.3691 25.5662 16.3225 28.2782 18.2291C30.9902 20.1358 33.0807 22.7358 34.5497 26.0291C36.0187 29.3225 36.7532 33.1069 36.7532 37.3825C36.7532 41.658 36.0469 45.3847 34.6062 48.7936C33.1654 52.1736 31.1032 54.8603 28.4195 56.7958C25.7357 58.7603 22.4305 59.7425 18.4472 59.7425C15.1985 59.7425 12.4582 59.2803 9.88745 57.778V52.0003Z" fill="#484D54"/>
<path d="M45.7651 46.7138H51.9519C52.0084 49.0827 52.8276 50.9605 54.4661 52.3183C56.0764 53.6761 58.2799 54.3694 61.1049 54.3694C64.1559 54.3694 66.5289 53.7338 68.2239 52.4627C69.9189 51.1916 70.7664 49.4872 70.7664 47.3494C70.7664 45.7316 70.2861 44.4316 69.3539 43.4205C68.4216 42.4094 66.7831 41.6005 64.4949 41.0227L57.3759 39.2027C53.7599 38.2783 51.0761 36.8627 49.3246 34.9561C47.5731 33.0494 46.6974 30.6516 46.6974 27.7627C46.6974 25.2783 47.3471 23.1116 48.6184 21.2627C49.8896 19.4138 51.6411 17.9983 53.9294 16.9872C56.1894 15.9761 58.7884 15.4561 61.7264 15.4561C64.6644 15.4561 67.2916 16.0049 69.4386 17.0738C71.5856 18.1427 73.2806 19.6161 74.5236 21.4938C75.7666 23.3716 76.4164 25.6538 76.4729 28.2827H70.2014C70.1449 25.9138 69.3539 24.0649 67.8284 22.7649C66.3029 21.4649 64.2124 20.8294 61.5569 20.8294C58.9014 20.8294 56.6696 21.4361 55.2006 22.5916C53.7316 23.7761 52.9971 25.4516 52.9971 27.5894C52.9971 30.7094 55.1724 32.8472 59.5229 34.0027L66.5571 35.7361C70.1166 36.6027 72.7439 37.9605 74.4389 39.7805C76.1339 41.6005 76.9814 44.0561 76.9814 47.1183C76.9814 49.6605 76.3034 51.8849 75.0039 53.7916C73.6761 55.6983 71.8116 57.1716 69.4386 58.2116C67.0656 59.2516 64.2689 59.7716 61.0484 59.7716C56.4154 59.7716 52.7146 58.5872 49.9461 56.2183C47.1776 53.8494 45.7934 50.7005 45.7934 46.7716L45.7651 46.7138Z" fill="#484D54"/>
<path d="M154.979 18.4595H156.872C157.352 18.4595 157.776 18.344 158.143 18.1418C158.511 17.9395 158.793 17.6506 158.991 17.2751C159.189 16.8995 159.302 16.4662 159.302 16.004C159.302 15.5418 159.189 15.0795 158.991 14.704C158.793 14.3284 158.511 14.0395 158.143 13.8373C157.776 13.6351 157.352 13.5195 156.872 13.5195H153.962V21.1462H154.979V18.4306V18.4595ZM156.703 14.4729C157.183 14.4729 157.55 14.5884 157.833 14.8773C158.115 15.1662 158.228 15.5129 158.228 16.004C158.228 16.4951 158.087 16.8418 157.833 17.1306C157.578 17.4195 157.183 17.5351 156.674 17.5351H155.008V14.4729H156.731H156.703Z" fill="#484D54"/>
<path d="M161.194 20.9438C161.59 21.1749 162.042 21.2905 162.55 21.2905C163.059 21.2905 163.511 21.1749 163.906 20.9438C164.302 20.7127 164.613 20.3949 164.839 19.9905C165.065 19.586 165.178 19.1238 165.178 18.5749C165.178 18.026 165.065 17.5927 164.839 17.1594C164.613 16.7549 164.302 16.4372 163.906 16.206C163.511 15.9749 163.059 15.8594 162.55 15.8594C162.042 15.8594 161.59 15.9749 161.194 16.206C160.799 16.4372 160.488 16.7549 160.262 17.1594C160.036 17.5638 159.923 18.026 159.923 18.5749C159.923 19.1238 160.036 19.586 160.262 19.9905C160.488 20.3949 160.799 20.7127 161.194 20.9438ZM161.11 17.6216C161.251 17.3616 161.449 17.1305 161.703 16.986C161.957 16.8416 162.24 16.7549 162.55 16.7549C162.861 16.7549 163.172 16.8416 163.398 16.986C163.624 17.1305 163.85 17.3616 163.991 17.6216C164.132 17.8816 164.217 18.2283 164.217 18.5749C164.217 18.9216 164.161 19.2394 163.991 19.5283C163.85 19.8172 163.652 20.0194 163.398 20.1638C163.144 20.3083 162.861 20.3949 162.55 20.3949C162.24 20.3949 161.929 20.3083 161.703 20.1638C161.477 20.0194 161.251 19.7883 161.11 19.5283C160.968 19.2683 160.912 18.9505 160.912 18.5749C160.912 18.1994 160.968 17.8816 161.11 17.6216Z" fill="#484D54"/>
<path d="M167.24 13.4043H166.279V21.1754H167.24V13.4043Z" fill="#484D54"/>
<path d="M170.234 20.5408C169.924 20.5408 169.669 20.4541 169.472 20.3096C169.274 20.1652 169.189 19.963 169.189 19.703H168.257C168.257 20.1941 168.426 20.5985 168.794 20.8874C169.161 21.1763 169.613 21.3208 170.206 21.3208C170.602 21.3208 170.969 21.263 171.28 21.1185C171.59 20.9741 171.816 20.8008 171.986 20.5696C172.155 20.3385 172.24 20.0496 172.24 19.7319C172.24 19.3563 172.127 19.0385 171.929 18.8363C171.703 18.6052 171.393 18.4608 170.969 18.3452L170.093 18.1141C169.585 17.9985 169.359 17.7674 169.359 17.3919C169.359 17.1608 169.443 16.9874 169.613 16.843C169.782 16.6985 170.008 16.6408 170.319 16.6408C170.63 16.6408 170.856 16.7274 170.997 16.8719C171.167 17.0163 171.251 17.2185 171.251 17.5074H172.184C172.184 17.1896 172.099 16.9008 171.929 16.6408C171.76 16.3808 171.562 16.2074 171.28 16.0919C170.997 15.9474 170.686 15.8896 170.319 15.8896C169.952 15.8896 169.613 15.9474 169.33 16.0919C169.048 16.2363 168.822 16.4096 168.652 16.6408C168.483 16.8719 168.398 17.1608 168.398 17.4785C168.398 17.8541 168.511 18.1719 168.737 18.403C168.963 18.6341 169.274 18.8074 169.726 18.923L170.602 19.1252C170.856 19.183 171.054 19.2985 171.138 19.3852C171.223 19.4719 171.28 19.6452 171.28 19.8185C171.28 20.0496 171.195 20.223 170.997 20.3674C170.799 20.5119 170.545 20.5696 170.206 20.5696L170.234 20.5408Z" fill="#484D54"/>
<path d="M174.302 19.7021L175.15 18.8065L176.619 21.1754H177.749L175.828 18.0843L177.749 16.0043H176.534L174.302 18.431V13.4043H173.313V21.1754H174.302V19.7021Z" fill="#484D54"/>
<path d="M179.02 14.7908C179.19 14.7908 179.359 14.733 179.472 14.5886C179.585 14.4441 179.67 14.2997 179.67 14.1264C179.67 13.953 179.613 13.7797 179.472 13.6641C179.331 13.5486 179.19 13.4619 179.02 13.4619C178.851 13.4619 178.709 13.5197 178.568 13.6641C178.427 13.8086 178.37 13.953 178.37 14.1264C178.37 14.2997 178.427 14.4441 178.568 14.5886C178.681 14.7041 178.851 14.7908 179.02 14.7908Z" fill="#484D54"/>
<path d="M179.528 16.0039H178.568V21.175H179.528V16.0039Z" fill="#484D54"/>
<path d="M181.817 20.9741C182.184 21.2052 182.636 21.3208 183.116 21.3208C183.738 21.3208 184.246 21.1763 184.67 20.8585C185.066 20.5696 185.348 20.1363 185.461 19.5874H184.557C184.472 19.8763 184.303 20.1074 184.077 20.2519C183.823 20.3963 183.512 20.483 183.145 20.483C182.636 20.483 182.241 20.3096 181.958 19.9919C181.732 19.703 181.619 19.2985 181.563 18.8074H185.433V18.4319C185.433 17.9119 185.348 17.4785 185.15 17.103C184.953 16.7274 184.67 16.4385 184.331 16.2074C183.992 15.9763 183.568 15.8896 183.088 15.8896C182.608 15.8896 182.156 16.0052 181.789 16.2363C181.421 16.4674 181.139 16.7852 180.913 17.1896C180.715 17.5941 180.602 18.0852 180.602 18.6052C180.602 19.1252 180.715 19.6163 180.913 20.0208C181.139 20.4252 181.421 20.743 181.789 20.9741H181.817ZM182.241 16.9296C182.467 16.7852 182.749 16.6985 183.06 16.6985C183.484 16.6985 183.823 16.8141 184.077 17.0741C184.331 17.3341 184.444 17.6808 184.444 18.1141H181.563C181.591 17.9119 181.591 17.7096 181.676 17.5363C181.789 17.2474 181.986 17.0452 182.212 16.9008L182.241 16.9296Z" fill="#484D54"/>
<path d="M156.053 34.0019C156.59 34.0019 157.042 33.9152 157.465 33.7419C157.861 33.5686 158.172 33.3086 158.398 32.9619C158.624 32.6152 158.737 32.2397 158.737 31.7775C158.737 31.2286 158.595 30.7952 158.285 30.4486C157.974 30.1019 157.522 29.8708 156.9 29.7263L155.657 29.4375C155.29 29.3508 155.036 29.2063 154.866 29.033C154.697 28.8597 154.612 28.5997 154.612 28.2819C154.612 27.9063 154.753 27.5886 155.036 27.3863C155.318 27.1841 155.686 27.0397 156.166 27.0397C156.59 27.0397 156.929 27.1552 157.183 27.3575C157.437 27.5597 157.578 27.8775 157.607 28.253H158.652C158.652 27.8197 158.511 27.4152 158.313 27.0975C158.115 26.7797 157.833 26.5486 157.465 26.3752C157.098 26.2019 156.703 26.1152 156.222 26.1152C155.714 26.1152 155.262 26.2019 154.866 26.4041C154.471 26.6063 154.16 26.8375 153.962 27.1841C153.736 27.5019 153.652 27.9063 153.652 28.3397C153.652 28.8886 153.821 29.3508 154.132 29.6975C154.443 30.0441 154.923 30.3041 155.516 30.4486L156.759 30.7375C157.126 30.8241 157.381 30.9686 157.55 31.1419C157.72 31.3152 157.804 31.5752 157.804 31.893C157.804 32.2686 157.663 32.5575 157.352 32.7886C157.07 33.0197 156.646 33.1352 156.166 33.1352C155.686 33.1352 155.318 33.0197 155.036 32.8175C154.753 32.6152 154.612 32.3263 154.584 31.9508H153.539C153.539 32.3841 153.68 32.7597 153.906 33.0775C154.132 33.3952 154.414 33.6552 154.81 33.8286C155.205 34.0019 155.629 34.0886 156.138 34.0886L156.053 34.0019Z" fill="#484D54"/>
<path d="M161.251 33.8582V29.5249H162.239V28.6871H161.251V27.0693H160.262V28.6871H159.273V29.5249H160.262V33.8582H161.251Z" fill="#484D54"/>
<path d="M163.143 29.8703C162.917 30.2748 162.804 30.737 162.804 31.2859C162.804 31.8348 162.917 32.297 163.143 32.7014C163.369 33.1059 163.68 33.4236 164.076 33.6548C164.471 33.8859 164.923 34.0014 165.46 34.0014C165.997 34.0014 166.42 33.8859 166.816 33.6548C167.211 33.4236 167.522 33.1059 167.748 32.7014C167.974 32.297 168.087 31.8348 168.087 31.2859C168.087 30.737 167.974 30.3036 167.748 29.8703C167.522 29.4659 167.211 29.1481 166.816 28.917C166.42 28.6859 165.968 28.5703 165.46 28.5703C164.951 28.5703 164.499 28.6859 164.076 28.917C163.68 29.1481 163.369 29.4659 163.143 29.8703ZM165.46 29.437C165.799 29.437 166.081 29.5236 166.336 29.6681C166.59 29.8125 166.788 30.0436 166.929 30.3036C167.07 30.5636 167.155 30.9103 167.155 31.257C167.155 31.6036 167.098 31.9214 166.929 32.2103C166.788 32.4992 166.59 32.7014 166.336 32.8459C166.081 32.9903 165.799 33.077 165.46 33.077C165.121 33.077 164.838 32.9903 164.584 32.8459C164.33 32.7014 164.132 32.4703 163.991 32.2103C163.85 31.9503 163.793 31.6325 163.793 31.257C163.793 30.8814 163.85 30.5636 163.991 30.3036C164.132 30.0436 164.33 29.8125 164.584 29.6681C164.838 29.5236 165.121 29.437 165.46 29.437Z" fill="#484D54"/>
<path d="M171.11 31.3726C171.11 31.3726 171.025 31.6037 170.997 31.7482C170.969 31.8926 170.912 32.0082 170.884 32.1526C170.856 32.2971 170.828 32.4415 170.799 32.6148C170.743 32.3837 170.715 32.1815 170.658 31.9793C170.602 31.7771 170.545 31.5748 170.489 31.4015L169.641 28.7148H168.624L170.291 33.886H171.251L172.127 31.1126C172.212 30.7948 172.297 30.5637 172.325 30.3615C172.381 30.1882 172.41 30.0148 172.438 29.8993C172.438 30.0437 172.494 30.2171 172.551 30.4193C172.607 30.6215 172.664 30.8526 172.749 31.1126L173.624 33.886H174.557L176.308 28.7148H175.291L174.444 31.4015C174.387 31.546 174.359 31.6904 174.302 31.8348C174.274 31.9793 174.218 32.0948 174.189 32.2393C174.161 32.3548 174.133 32.4993 174.105 32.6437C174.105 32.5571 174.048 32.4415 174.02 32.326C173.992 32.2104 173.963 32.0948 173.935 31.9793C173.907 31.8637 173.879 31.7482 173.85 31.6615C173.822 31.5748 173.794 31.4882 173.766 31.4015L172.918 28.7148H171.929L171.082 31.4015L171.11 31.3726Z" fill="#484D54"/>
<path d="M177.099 30.3331H177.947C177.947 30.0153 178.06 29.7842 178.286 29.6109C178.512 29.4375 178.823 29.3509 179.246 29.3509C179.472 29.3509 179.67 29.3798 179.868 29.4664C180.037 29.5531 180.179 29.6687 180.292 29.842C180.405 30.0153 180.461 30.2464 180.461 30.5353V30.6798L178.851 30.7953C178.258 30.8531 177.777 31.0264 177.467 31.2864C177.128 31.5753 176.958 31.9509 176.958 32.4131C176.958 32.8753 177.099 33.2509 177.41 33.5398C177.721 33.8287 178.145 33.9731 178.681 33.9731C179.105 33.9731 179.444 33.8864 179.783 33.7131C180.122 33.5398 180.348 33.3087 180.461 33.0198L180.574 33.8575H181.422V30.622C181.422 30.1598 181.337 29.7842 181.167 29.4664C180.998 29.1487 180.744 28.9175 180.433 28.7731C180.122 28.6287 179.755 28.542 179.331 28.542C178.907 28.542 178.512 28.6287 178.173 28.7731C177.834 28.9175 177.58 29.1198 177.41 29.4087C177.241 29.6975 177.128 29.9864 177.128 30.362L177.099 30.3331ZM180.461 31.6331C180.461 32.1242 180.32 32.4998 180.066 32.7887C179.811 33.0775 179.444 33.222 178.964 33.222C178.653 33.222 178.399 33.1642 178.201 33.0198C178.003 32.8753 177.919 32.6731 177.919 32.4131C177.919 32.1531 178.003 31.9509 178.201 31.7775C178.399 31.6042 178.71 31.5175 179.133 31.4598L180.433 31.3442V31.6331H180.461Z" fill="#484D54"/>
<path d="M185.687 29.5525V28.6281C185.687 28.6281 185.489 28.5992 185.433 28.5703C185.348 28.5703 185.263 28.5703 185.179 28.5703C184.783 28.5703 184.444 28.6859 184.19 28.8881C183.964 29.0614 183.851 29.3214 183.766 29.5814L183.681 28.6859H182.777V33.857H183.766V31.1125C183.766 30.6214 183.907 30.217 184.162 29.957C184.416 29.697 184.783 29.5525 185.263 29.5525H185.687Z" fill="#484D54"/>
<path d="M190.264 33.0199H187.467L190.264 29.4954V28.6865H186.28V29.5243H189.021L186.28 33.0487V33.8576H190.264V33.0199Z" fill="#484D54"/>
<path d="M192.609 34.6371C192.524 34.8682 192.439 35.0126 192.326 35.1282C192.213 35.2437 192.1 35.3015 191.959 35.3304C191.818 35.3593 191.676 35.3882 191.535 35.3882H190.885V36.1971C190.885 36.1971 191.14 36.2548 191.281 36.2837C191.422 36.2837 191.563 36.2837 191.733 36.2837C192.128 36.2837 192.439 36.1971 192.722 35.9948C193.004 35.7926 193.202 35.4748 193.371 35.0415L195.773 28.7148H194.756L193.258 32.8748L191.761 28.7148H190.716L192.778 34.146L192.609 34.6371Z" fill="#484D54"/>
<path d="M198.117 33.2214C197.806 33.2214 197.552 33.1348 197.354 32.9903C197.157 32.8459 197.072 32.6436 197.072 32.3836H196.14C196.14 32.8748 196.309 33.2792 196.676 33.5681C197.044 33.857 197.496 34.0014 198.117 34.0014C198.513 34.0014 198.88 33.9436 199.191 33.7992C199.501 33.6548 199.727 33.4814 199.897 33.2503C200.066 33.0192 200.151 32.7303 200.151 32.4125C200.151 32.037 200.038 31.7192 199.84 31.517C199.614 31.2859 199.304 31.1414 198.88 31.0259L197.976 30.7948C197.467 30.6792 197.213 30.4481 197.213 30.0725C197.213 29.8414 197.298 29.6681 197.467 29.5236C197.637 29.3792 197.863 29.3214 198.174 29.3214C198.484 29.3214 198.71 29.4081 198.88 29.5525C199.049 29.697 199.134 29.8992 199.134 30.1881H200.066C200.066 29.8703 199.982 29.5814 199.812 29.3214C199.643 29.0614 199.445 28.8881 199.162 28.7725C198.88 28.6281 198.569 28.5703 198.202 28.5703C197.835 28.5703 197.496 28.6281 197.213 28.7725C196.931 28.917 196.705 29.0903 196.535 29.3214C196.366 29.5525 196.281 29.8414 196.281 30.1592C196.281 30.5348 196.394 30.8525 196.62 31.0836C196.846 31.3148 197.185 31.4881 197.637 31.6036L198.541 31.8059C198.795 31.8636 198.993 31.9792 199.078 32.0659C199.162 32.1525 199.219 32.3259 199.219 32.4992C199.219 32.7303 199.134 32.9036 198.936 33.0481C198.739 33.1925 198.484 33.2503 198.145 33.2503L198.117 33.2214Z" fill="#484D54"/>
<path d="M204.869 33.0199H202.101L204.869 29.4954V28.6865H200.914V29.5243H203.654L200.914 33.0487V33.8576H204.869V33.0199Z" fill="#484D54"/>
<path d="M209.135 32.9325C208.881 33.077 208.57 33.1636 208.203 33.1636C207.694 33.1636 207.27 32.9903 207.016 32.6725C206.79 32.3836 206.677 31.9792 206.621 31.4881H210.547V31.1125C210.547 30.5925 210.463 30.1592 210.265 29.7836C210.067 29.4081 209.785 29.1192 209.417 28.8881C209.05 28.657 208.626 28.5703 208.146 28.5703C207.666 28.5703 207.214 28.6859 206.847 28.917C206.479 29.1481 206.169 29.4659 205.971 29.8703C205.773 30.2748 205.66 30.7659 205.66 31.2859C205.66 31.8059 205.773 32.297 205.971 32.7014C206.197 33.1059 206.479 33.4236 206.875 33.6548C207.242 33.8859 207.694 34.0014 208.203 34.0014C208.824 34.0014 209.361 33.857 209.756 33.5392C210.152 33.2503 210.434 32.817 210.547 32.2681H209.643C209.559 32.557 209.389 32.7881 209.163 32.9325H209.135ZM207.299 29.6103C207.525 29.4659 207.807 29.3792 208.146 29.3792C208.57 29.3792 208.909 29.4948 209.191 29.7548C209.446 30.0148 209.587 30.3614 209.587 30.7948H206.705C206.734 30.5925 206.734 30.3903 206.818 30.217C206.931 29.9281 207.129 29.7259 207.355 29.5814L207.299 29.6103Z" fill="#484D54"/>
<path d="M214.304 28.542C213.937 28.542 213.598 28.6287 213.316 28.802C213.005 28.9753 212.779 29.2064 212.609 29.4953L212.496 28.7153H211.621V33.8864H212.609V31.142C212.609 30.622 212.722 30.2175 212.977 29.9287C213.231 29.6398 213.598 29.4664 214.05 29.4664C214.417 29.4664 214.728 29.582 214.954 29.8131C215.18 30.0442 215.293 30.4198 215.293 30.9398V33.8864H216.282V30.7375C216.282 30.0731 216.112 29.5531 215.802 29.1775C215.491 28.802 214.982 28.5998 214.333 28.5998L214.304 28.542Z" fill="#484D54"/>
<path d="M218.09 26.1729C217.92 26.1729 217.751 26.2306 217.638 26.3751C217.525 26.5195 217.44 26.664 217.44 26.8373C217.44 27.0106 217.496 27.1551 217.638 27.2995C217.779 27.4151 217.92 27.5017 218.09 27.5017C218.259 27.5017 218.429 27.444 218.542 27.2995C218.655 27.1551 218.739 27.0106 218.739 26.8373C218.739 26.664 218.683 26.4906 218.542 26.3751C218.4 26.2595 218.259 26.1729 218.09 26.1729Z" fill="#484D54"/>
<path d="M218.626 28.6865H217.638V33.8576H218.626V28.6865Z" fill="#484D54"/>
<path d="M223.684 32.2681C223.599 32.557 223.429 32.7881 223.203 32.9325C222.949 33.077 222.638 33.1636 222.271 33.1636C221.763 33.1636 221.339 32.9903 221.085 32.6725C220.859 32.3836 220.746 31.9792 220.689 31.4881H224.616V31.1125C224.616 30.5925 224.531 30.1592 224.333 29.7836C224.136 29.4081 223.853 29.1192 223.486 28.8881C223.119 28.657 222.695 28.5703 222.215 28.5703C221.734 28.5703 221.282 28.6859 220.915 28.917C220.548 29.1481 220.237 29.4659 220.039 29.8703C219.842 30.2748 219.729 30.7659 219.729 31.2859C219.729 31.8059 219.842 32.297 220.039 32.7014C220.265 33.1059 220.548 33.4236 220.943 33.6548C221.339 33.8859 221.763 34.0014 222.243 34.0014C222.864 34.0014 223.401 33.857 223.797 33.5392C224.192 33.2503 224.475 32.817 224.588 32.2681H223.684ZM221.367 29.6103C221.593 29.4659 221.876 29.3792 222.215 29.3792C222.638 29.3792 222.977 29.4948 223.26 29.7548C223.514 30.0148 223.655 30.3614 223.655 30.7948H220.774C220.802 30.5925 220.802 30.3903 220.887 30.217C221 29.9281 221.198 29.7259 221.424 29.5814L221.367 29.6103Z" fill="#484D54"/>
<path d="M154.979 38.9141H153.962V46.5407H154.979V38.9141Z" fill="#484D54"/>
<path d="M161.138 46.5406V43.3917C161.138 42.7272 160.968 42.2072 160.658 41.8317C160.347 41.4561 159.838 41.2539 159.189 41.2539C158.821 41.2539 158.511 41.3406 158.2 41.5139C157.889 41.6872 157.663 41.9184 157.522 42.2072L157.409 41.4272H156.533V46.5984H157.494V43.8539C157.494 43.3339 157.607 42.9295 157.861 42.6406C158.115 42.3517 158.454 42.1784 158.934 42.1784C159.302 42.1784 159.612 42.2939 159.838 42.525C160.064 42.7561 160.177 43.1317 160.177 43.6517V46.5984H161.138V46.5406Z" fill="#484D54"/>
<path d="M166.957 46.5403H167.89L169.613 41.3691H168.596L167.748 44.0558C167.692 44.2003 167.664 44.3447 167.607 44.4891C167.579 44.6336 167.522 44.7491 167.494 44.8936C167.466 45.0091 167.438 45.1536 167.409 45.298C167.409 45.2114 167.353 45.0958 167.325 44.9803C167.296 44.8647 167.268 44.7491 167.24 44.6336C167.212 44.518 167.183 44.4025 167.155 44.3158C167.127 44.2291 167.099 44.1425 167.07 44.0558L166.223 41.3691H165.234L164.387 44.0558C164.387 44.0558 164.302 44.2869 164.274 44.4314C164.245 44.5758 164.189 44.6914 164.161 44.8358C164.132 44.9803 164.104 45.1247 164.076 45.298C164.019 45.0669 163.991 44.8647 163.935 44.6625C163.878 44.4603 163.822 44.258 163.765 44.0847L162.918 41.398H161.929L163.567 46.5691H164.528L165.404 43.7958C165.488 43.478 165.573 43.2469 165.601 43.0447C165.658 42.8714 165.686 42.698 165.714 42.5825C165.714 42.7269 165.771 42.9003 165.827 43.1025C165.884 43.3047 165.94 43.5358 166.025 43.7958L166.901 46.5691L166.957 46.5403Z" fill="#484D54"/>
<path d="M174.161 46.2228C174.557 45.9339 174.839 45.5006 174.952 44.9517H174.048C173.964 45.2406 173.794 45.4717 173.568 45.6161C173.314 45.7606 173.003 45.8472 172.636 45.8472C172.127 45.8472 171.732 45.6739 171.449 45.3561C171.223 45.0672 171.11 44.6628 171.054 44.1717H174.924V43.7961C174.924 43.2761 174.839 42.8428 174.642 42.4672C174.444 42.0917 174.161 41.8028 173.822 41.5717C173.483 41.3406 173.06 41.2539 172.579 41.2539C172.099 41.2539 171.647 41.3695 171.28 41.6006C170.913 41.8317 170.63 42.1495 170.404 42.5539C170.206 42.9584 170.093 43.4495 170.093 43.9695C170.093 44.4895 170.206 44.9806 170.404 45.385C170.63 45.7895 170.913 46.1072 171.28 46.3384C171.647 46.5695 172.099 46.685 172.579 46.685C173.201 46.685 173.709 46.5406 174.133 46.2228H174.161ZM171.732 42.2939C171.958 42.1495 172.24 42.0628 172.551 42.0628C172.975 42.0628 173.314 42.1784 173.568 42.4384C173.822 42.6984 173.935 43.045 173.935 43.4784H171.054C171.082 43.2761 171.082 43.0739 171.167 42.9006C171.28 42.6117 171.478 42.4095 171.704 42.265L171.732 42.2939Z" fill="#484D54"/>
<path d="M179.331 45.9046C179.5 45.6735 179.585 45.3846 179.585 45.0668C179.585 44.6913 179.472 44.3735 179.274 44.1713C179.048 43.9402 178.737 43.7957 178.314 43.6802L177.438 43.4491C176.929 43.3335 176.703 43.1024 176.703 42.7268C176.703 42.4957 176.788 42.3224 176.958 42.1779C177.127 42.0335 177.353 41.9757 177.664 41.9757C177.975 41.9757 178.201 42.0624 178.342 42.2068C178.511 42.3513 178.596 42.5535 178.596 42.8424H179.528C179.528 42.5246 179.444 42.2357 179.274 41.9757C179.105 41.7157 178.907 41.5424 178.624 41.4268C178.342 41.2824 178.031 41.2246 177.664 41.2246C177.297 41.2246 176.958 41.2824 176.675 41.4268C176.393 41.5713 176.167 41.7446 175.997 41.9757C175.828 42.2068 175.743 42.4957 175.743 42.8135C175.743 43.1891 175.856 43.5068 176.082 43.7379C176.308 43.9691 176.619 44.1424 177.071 44.2579L177.946 44.4602C178.201 44.5179 178.398 44.6335 178.483 44.7202C178.568 44.8068 178.624 44.9802 178.624 45.1535C178.624 45.3846 178.54 45.5579 178.342 45.7024C178.144 45.8468 177.89 45.9046 177.551 45.9046C177.24 45.9046 176.986 45.8179 176.788 45.6735C176.59 45.5291 176.506 45.3268 176.506 45.0668H175.573C175.573 45.5579 175.743 45.9624 176.11 46.2513C176.477 46.5402 176.929 46.6846 177.523 46.6846C177.918 46.6846 178.285 46.6268 178.596 46.4824C178.907 46.3379 179.133 46.1646 179.302 45.9335L179.331 45.9046Z" fill="#484D54"/>
<path d="M183.088 42.2056V41.3678H182.1V39.75H181.111V41.3678H180.122V42.2056H181.111V46.5389H182.1V42.2056H183.088Z" fill="#484D54"/>
<path d="M184.896 46.3091C185.292 46.5402 185.744 46.6557 186.252 46.6557C186.761 46.6557 187.213 46.5402 187.608 46.3091C188.004 46.0779 188.314 45.7602 188.54 45.3557C188.766 44.9513 188.88 44.4891 188.88 43.9402C188.88 43.3913 188.766 42.9579 188.54 42.5246C188.314 42.1202 188.004 41.8024 187.608 41.5713C187.213 41.3402 186.761 41.2246 186.252 41.2246C185.744 41.2246 185.292 41.3402 184.896 41.5713C184.501 41.8024 184.19 42.1202 183.964 42.5246C183.738 42.9291 183.625 43.3913 183.625 43.9402C183.625 44.4891 183.738 44.9513 183.964 45.3557C184.19 45.7602 184.501 46.0779 184.896 46.3091ZM184.811 42.9868C184.953 42.7268 185.15 42.4957 185.405 42.3513C185.659 42.2068 185.942 42.1202 186.252 42.1202C186.563 42.1202 186.874 42.2068 187.1 42.3513C187.326 42.4957 187.552 42.7268 187.693 42.9868C187.834 43.2468 187.919 43.5935 187.919 43.9402C187.919 44.2868 187.863 44.6046 187.693 44.8935C187.552 45.1824 187.354 45.3846 187.1 45.5291C186.846 45.6735 186.563 45.7602 186.252 45.7602C185.942 45.7602 185.631 45.6735 185.405 45.5291C185.179 45.3846 184.953 45.1535 184.811 44.8935C184.67 44.6335 184.614 44.3157 184.614 43.9402C184.614 43.5646 184.67 43.2468 184.811 42.9868Z" fill="#484D54"/>
<path d="M192.41 42.2361H192.834V41.3117C192.834 41.3117 192.665 41.2828 192.58 41.2539C192.495 41.2539 192.41 41.2539 192.326 41.2539C191.93 41.2539 191.619 41.3695 191.337 41.5717C191.111 41.745 190.998 42.005 190.913 42.265L190.828 41.3695H189.924V46.5406H190.885V43.7961C190.885 43.305 191.026 42.9006 191.28 42.6406C191.535 42.3806 191.902 42.2361 192.382 42.2361H192.41Z" fill="#484D54"/>
<path d="M197.326 39.375H196.394L195.688 40.7617H196.45L197.326 39.375Z" fill="#484D54"/>
<path d="M196.055 41.2246C195.546 41.2246 195.094 41.3402 194.699 41.5713C194.303 41.8024 193.993 42.1202 193.767 42.5246C193.541 42.9291 193.428 43.3913 193.428 43.9402C193.428 44.4891 193.541 44.9513 193.767 45.3557C193.993 45.7602 194.303 46.0779 194.699 46.3091C195.094 46.5402 195.546 46.6557 196.055 46.6557C196.563 46.6557 197.015 46.5402 197.411 46.3091C197.806 46.0779 198.117 45.7602 198.343 45.3557C198.569 44.9513 198.682 44.4891 198.682 43.9402C198.682 43.3913 198.569 42.9579 198.343 42.5246C198.117 42.1202 197.806 41.8024 197.411 41.5713C197.015 41.3402 196.563 41.2246 196.055 41.2246ZM197.693 43.9402C197.693 44.2868 197.637 44.6046 197.467 44.8935C197.326 45.1824 197.128 45.3846 196.874 45.5291C196.62 45.6735 196.337 45.7602 196.027 45.7602C195.716 45.7602 195.405 45.6735 195.179 45.5291C194.953 45.3846 194.727 45.1535 194.586 44.8935C194.445 44.6335 194.388 44.3157 194.388 43.9402C194.388 43.5646 194.445 43.2468 194.586 42.9868C194.727 42.7268 194.925 42.4957 195.179 42.3513C195.433 42.2068 195.716 42.1202 196.027 42.1202C196.337 42.1202 196.648 42.2068 196.874 42.3513C197.1 42.4957 197.326 42.7268 197.467 42.9868C197.609 43.2468 197.693 43.5935 197.693 43.9402Z" fill="#484D54"/>
<path d="M206.846 41.3691H205.829L204.982 44.0558C204.925 44.2003 204.897 44.3447 204.84 44.4891C204.812 44.6336 204.756 44.7491 204.727 44.8936C204.699 45.0091 204.671 45.1536 204.643 45.298C204.643 45.2114 204.586 45.0958 204.558 44.9803C204.53 44.8647 204.501 44.7491 204.473 44.6336C204.445 44.518 204.417 44.4025 204.388 44.3158C204.36 44.2291 204.332 44.1425 204.304 44.0558L203.456 41.3691H202.467L201.62 44.0558C201.62 44.0558 201.535 44.2869 201.507 44.4314C201.479 44.5758 201.422 44.6914 201.394 44.8358C201.366 44.9803 201.337 45.1247 201.309 45.298C201.253 45.0669 201.224 44.8647 201.168 44.6625C201.111 44.4603 201.055 44.258 200.998 44.0847L200.151 41.398H199.162L200.801 46.5691H201.761L202.637 43.7958C202.722 43.478 202.806 43.2469 202.835 43.0447C202.891 42.8714 202.919 42.698 202.948 42.5825C202.948 42.7269 203.004 42.9003 203.061 43.1025C203.117 43.3047 203.174 43.5358 203.258 43.7958L204.134 46.5691H205.066L206.79 41.398L206.846 41.3691Z" fill="#484D54"/>
<path d="M159.499 51.5947H158.313L154.979 55.8992V51.5947H153.962V59.2214H154.979V57.4592L156.335 55.6969L158.369 59.2214H159.556L157.013 54.8303L159.499 51.5947Z" fill="#484D54"/>
<path d="M163.624 54.1383C163.313 53.9939 162.946 53.9072 162.522 53.9072C162.098 53.9072 161.703 53.9939 161.392 54.1383C161.053 54.2828 160.799 54.485 160.629 54.7739C160.46 55.0628 160.375 55.3517 160.375 55.7272H161.222C161.222 55.4095 161.335 55.1783 161.561 55.005C161.787 54.8317 162.098 54.745 162.494 54.745C162.72 54.745 162.917 54.7739 163.115 54.8606C163.285 54.9472 163.426 55.0628 163.539 55.2361C163.652 55.4095 163.68 55.6406 163.68 55.9295V56.0739L162.098 56.1895C161.505 56.2472 161.053 56.4206 160.714 56.6806C160.375 56.9695 160.205 57.345 160.205 57.8072C160.205 58.2695 160.347 58.645 160.657 58.9339C160.968 59.2228 161.392 59.3672 161.929 59.3672C162.324 59.3672 162.691 59.2806 163.03 59.1072C163.341 58.9339 163.567 58.7028 163.708 58.4139L163.821 59.2517H164.641V56.0161C164.641 55.5539 164.556 55.1783 164.386 54.8606C164.217 54.5428 163.963 54.3117 163.652 54.1672L163.624 54.1383ZM163.68 56.9983C163.68 57.4894 163.539 57.865 163.285 58.1539C163.03 58.4428 162.663 58.5872 162.211 58.5872C161.9 58.5872 161.646 58.5294 161.477 58.385C161.307 58.2406 161.194 58.0383 161.194 57.7783C161.194 57.5183 161.279 57.3161 161.477 57.1428C161.674 56.9695 161.985 56.8828 162.409 56.825L163.708 56.7094V56.9983H163.68Z" fill="#484D54"/>
<path d="M169.98 54.2539C169.641 54.0228 169.217 53.9072 168.737 53.9072C168.342 53.9072 167.974 53.9939 167.635 54.1672C167.296 54.3406 167.07 54.6295 166.901 54.9761L166.816 54.0517H165.94V61.5339H166.901V58.385C167.07 58.7028 167.296 58.9339 167.635 59.1072C167.974 59.2806 168.313 59.3672 168.709 59.3672C169.217 59.3672 169.641 59.2517 169.98 59.0206C170.319 58.7895 170.602 58.4428 170.771 58.0383C170.941 57.6339 171.054 57.1428 171.054 56.6228C171.054 56.1028 170.969 55.6406 170.771 55.2361C170.573 54.8317 170.319 54.5139 169.952 54.2828L169.98 54.2539ZM169.924 57.5761C169.811 57.8361 169.613 58.0672 169.387 58.2117C169.161 58.3561 168.878 58.4428 168.539 58.4428C168.2 58.4428 167.918 58.3561 167.692 58.2117C167.466 58.0672 167.268 57.8361 167.155 57.5761C167.042 57.2872 166.957 56.9695 166.957 56.6517C166.957 56.3339 167.014 55.9872 167.155 55.6983C167.296 55.4095 167.466 55.2072 167.692 55.0628C167.918 54.9183 168.2 54.8317 168.539 54.8317C168.878 54.8317 169.161 54.9183 169.387 55.0628C169.613 55.2072 169.811 55.4383 169.924 55.6983C170.037 55.9583 170.121 56.305 170.121 56.6517C170.121 56.9983 170.065 57.3161 169.924 57.5761Z" fill="#484D54"/>
<path d="M173.116 54.0518H172.155V59.2229H173.116V54.0518Z" fill="#484D54"/>
<path d="M172.635 51.5098C172.466 51.5098 172.325 51.5675 172.183 51.712C172.042 51.8564 171.986 52.0009 171.986 52.1742C171.986 52.3475 172.042 52.492 172.183 52.6364C172.296 52.752 172.466 52.8387 172.635 52.8387C172.805 52.8387 172.974 52.7809 173.087 52.6364C173.2 52.492 173.285 52.3475 173.285 52.1742C173.285 52.0009 173.229 51.8275 173.087 51.712C172.946 51.5964 172.805 51.5098 172.635 51.5098Z" fill="#484D54"/>
<path d="M175.969 52.4336H174.98V54.0514H173.992V54.8892H174.98V59.2225H175.969V54.8892H176.958V54.0514H175.969V52.4336Z" fill="#484D54"/>
<path d="M180.998 54.1383C180.687 53.9939 180.32 53.9072 179.896 53.9072C179.472 53.9072 179.077 53.9939 178.766 54.1383C178.427 54.2828 178.173 54.485 178.003 54.7739C177.834 55.0628 177.749 55.3517 177.749 55.7272H178.596C178.596 55.4095 178.709 55.1783 178.935 55.005C179.161 54.8317 179.472 54.745 179.868 54.745C180.094 54.745 180.291 54.7739 180.489 54.8606C180.659 54.9472 180.8 55.0628 180.913 55.2361C181.026 55.4095 181.054 55.6406 181.054 55.9295V56.0739L179.472 56.1895C178.879 56.2472 178.427 56.4206 178.088 56.6806C177.749 56.9695 177.579 57.345 177.579 57.8072C177.579 58.2695 177.721 58.645 178.031 58.9339C178.342 59.2228 178.766 59.3672 179.303 59.3672C179.698 59.3672 180.065 59.2806 180.404 59.1072C180.715 58.9339 180.941 58.7028 181.082 58.4139L181.195 59.2517H182.015V56.0161C182.015 55.5539 181.93 55.1783 181.76 54.8606C181.591 54.5428 181.337 54.3117 181.026 54.1672L180.998 54.1383ZM181.054 56.9983C181.054 57.4894 180.913 57.865 180.659 58.1539C180.404 58.4428 180.037 58.5872 179.585 58.5872C179.274 58.5872 179.02 58.5294 178.851 58.385C178.681 58.2406 178.568 58.0383 178.568 57.7783C178.568 57.5183 178.653 57.3161 178.851 57.1428C179.048 56.9695 179.359 56.8828 179.783 56.825L181.082 56.7094V56.9983H181.054Z" fill="#484D54"/>
<path d="M184.331 51.4512H183.371V55.0334L182.749 55.3223V56.0734L183.371 55.7845V59.2223H184.331V55.2934L184.924 55.0045V54.2534L184.331 54.5423V51.4512Z" fill="#484D54"/>
<path d="M189.416 54.2539C189.021 54.0228 188.569 53.9072 188.06 53.9072C187.552 53.9072 187.1 54.0228 186.704 54.2539C186.309 54.485 185.998 54.8028 185.772 55.2072C185.546 55.6117 185.433 56.0739 185.433 56.6228C185.433 57.1717 185.546 57.6339 185.772 58.0383C185.998 58.4428 186.309 58.7606 186.704 58.9917C187.1 59.2228 187.552 59.3383 188.06 59.3383C188.569 59.3383 189.021 59.2228 189.416 58.9917C189.812 58.7606 190.123 58.4428 190.349 58.0383C190.575 57.6339 190.688 57.1717 190.688 56.6228C190.688 56.0739 190.575 55.6406 190.349 55.2072C190.123 54.8028 189.812 54.485 189.416 54.2539ZM189.501 57.5761C189.36 57.865 189.162 58.0672 188.908 58.2117C188.654 58.3561 188.371 58.4428 188.06 58.4428C187.75 58.4428 187.439 58.3561 187.213 58.2117C186.987 58.0672 186.761 57.8361 186.62 57.5761C186.478 57.3161 186.422 56.9983 186.422 56.6228C186.422 56.2472 186.478 55.9295 186.62 55.6695C186.761 55.4095 186.959 55.1783 187.213 55.0339C187.467 54.8894 187.75 54.8028 188.06 54.8028C188.371 54.8028 188.682 54.8894 188.908 55.0339C189.134 55.1783 189.36 55.4095 189.501 55.6695C189.642 55.9295 189.727 56.2761 189.727 56.6228C189.727 56.9695 189.671 57.2872 189.501 57.5761Z" fill="#484D54"/>
<path d="M196.987 56.7384C196.93 56.8829 196.902 57.0273 196.846 57.1718C196.817 57.3162 196.761 57.4318 196.733 57.5762C196.704 57.6918 196.676 57.8362 196.648 57.9806C196.648 57.894 196.591 57.7784 196.563 57.6629C196.535 57.5473 196.507 57.4318 196.478 57.3162C196.45 57.2006 196.422 57.0851 196.394 56.9984C196.365 56.9118 196.337 56.8251 196.309 56.7384L195.461 54.0518H194.473L193.625 56.7384C193.625 56.7384 193.54 56.9695 193.512 57.114C193.484 57.2584 193.427 57.374 193.399 57.5184C193.371 57.6629 193.343 57.8073 193.314 57.9806C193.258 57.7495 193.23 57.5473 193.173 57.3451C193.117 57.1429 193.06 56.9406 193.004 56.7673L192.156 54.0806H191.167L192.806 59.2518H193.766L194.642 56.4784C194.727 56.1606 194.812 55.9295 194.84 55.7273C194.896 55.554 194.925 55.3806 194.953 55.2651C194.953 55.4095 195.009 55.5829 195.066 55.7851C195.122 55.9873 195.179 56.2184 195.264 56.4784L196.139 59.2518H197.072L198.795 54.0806H197.778L196.93 56.7673L196.987 56.7384Z" fill="#484D54"/>
<path d="M201.564 58.2118L200.095 54.0518H199.078L201.112 59.4829L200.942 59.974C200.857 60.2051 200.773 60.3495 200.66 60.4651C200.547 60.5807 200.434 60.6384 200.292 60.6673C200.151 60.6962 200.01 60.7251 199.869 60.7251H199.219V61.534C199.219 61.534 199.473 61.5918 199.614 61.6206C199.756 61.6206 199.897 61.6206 200.066 61.6206C200.462 61.6206 200.773 61.534 201.027 61.3318C201.281 61.1295 201.507 60.8118 201.677 60.3784L204.05 54.0518H203.061L201.564 58.2118Z" fill="#484D54"/>
<path d="M207.863 58.2111C207.609 58.3844 207.326 58.4711 206.987 58.4711C206.677 58.4711 206.422 58.3844 206.196 58.24C205.97 58.0955 205.801 57.8644 205.66 57.6044C205.518 57.3444 205.462 56.9978 205.462 56.6511C205.462 56.3044 205.518 55.9578 205.66 55.6689C205.801 55.38 205.97 55.1778 206.196 55.0333C206.422 54.8889 206.705 54.8022 207.016 54.8022C207.326 54.8022 207.609 54.8889 207.863 55.0622C208.117 55.2355 208.259 55.4667 208.343 55.8133H209.304C209.219 55.2355 208.965 54.7733 208.541 54.4555C208.117 54.1089 207.581 53.9355 206.959 53.9355C206.479 53.9355 206.027 54.0511 205.66 54.2822C205.292 54.5133 204.982 54.8311 204.784 55.2355C204.586 55.64 204.473 56.1311 204.473 56.6511C204.473 57.1711 204.586 57.6622 204.784 58.0667C204.982 58.4711 205.264 58.7889 205.66 59.02C206.055 59.2511 206.451 59.3667 206.959 59.3667C207.355 59.3667 207.75 59.28 208.061 59.1355C208.4 58.9622 208.682 58.76 208.88 58.4711C209.106 58.1822 209.247 57.8644 209.304 57.4889H208.343C208.259 57.7778 208.089 58.0378 207.835 58.2111H207.863Z" fill="#484D54"/>
<path d="M213.061 53.9067C212.666 53.9067 212.327 53.9934 212.016 54.1667C211.705 54.3401 211.479 54.5712 211.338 54.8601V51.4512H210.377V59.2223H211.338V56.4201C211.338 56.1312 211.394 55.8423 211.507 55.6112C211.62 55.3801 211.79 55.1778 211.988 55.0334C212.214 54.8889 212.468 54.8312 212.779 54.8312C213.033 54.8312 213.231 54.889 213.428 54.9756C213.598 55.0623 213.739 55.2356 213.852 55.4378C213.965 55.6401 213.993 55.9289 213.993 56.2756V59.2223H214.954V56.0734C214.954 55.409 214.784 54.889 214.474 54.5134C214.163 54.1378 213.683 53.9356 213.033 53.9356L213.061 53.9067Z" fill="#484D54"/>
</g>
<defs>
<clipPath id="clip0_52_1392">
<rect width="226" height="78" fill="white"/>
</clipPath>
</defs>
</svg>
