<svg width="171" height="79" viewBox="0 0 171 79" fill="none" xmlns="http://www.w3.org/2000/svg">
<g clip-path="url(#clip0_70_1277)">
<path d="M20.0599 12.5006C20.5568 13.1425 20.7898 13.9819 20.7898 15.0189V20.2038H17.3266V15.9242C17.3266 15.2164 17.249 14.6733 17.1093 14.3111C16.9695 13.949 16.7055 13.7022 16.3328 13.554C15.9601 13.4058 15.4009 13.34 14.6555 13.34H2.77541V20.2038H-0.71875V-0.140625H13.6151C15.9601 -0.140625 17.7926 0.353171 19.097 1.35723C20.4015 2.34481 21.0538 3.89204 21.0538 5.9989C21.0538 8.61603 20.0133 10.3937 17.9167 11.3154C18.8641 11.4636 19.5784 11.8586 20.0754 12.5006H20.0599ZM2.77541 3.13488V10.1139H12.7144C13.6461 10.1139 14.4071 10.048 15.0282 9.93282C15.6495 9.8176 16.1774 9.50485 16.6278 8.9946C17.0782 8.48435 17.3111 7.69427 17.3111 6.60792C17.3111 5.52156 17.0782 4.76441 16.6278 4.25415C16.1774 3.74391 15.634 3.43116 15.0282 3.31594C14.4226 3.20073 13.6461 3.13488 12.7144 3.13488H2.77541Z" fill="#484D54"/>
<path d="M37.6727 10.3443L46.4158 -0.140625H51.0282L39.5362 13.5211V20.2038H35.7936V13.5211L24.2861 -0.140625H28.8985L37.6571 10.3279L37.6727 10.3443Z" fill="#484D54"/>
<path d="M85.5338 -0.140625V20.2038H82.0396V3.2501L72.318 20.2038H69.119L59.3974 3.2501V20.2038H55.9033V-0.140625H61.3852L70.7186 15.9572L80.0364 -0.140625H85.5183H85.5338Z" fill="#484D54"/>
<path d="M117.118 20.2038H113.158L110.782 15.809H96.8364L94.4603 20.2038H90.4692L101.588 -0.140625H106.014L117.134 20.2038H117.118ZM103.794 2.92091L98.5446 12.6158H109.027L103.778 2.92091H103.794Z" fill="#484D54"/>
<path d="M142.865 12.5006C143.362 13.1425 143.595 13.9819 143.595 15.0189V20.2038H140.132V15.9242C140.132 15.2164 140.054 14.6733 139.914 14.3111C139.775 13.949 139.511 13.7022 139.138 13.554C138.765 13.4058 138.206 13.34 137.461 13.34H125.581V20.2038H122.086V-0.140625H136.42C138.765 -0.140625 140.598 0.353171 141.902 1.35723C143.207 2.34481 143.858 3.89204 143.858 5.9989C143.858 8.61603 142.818 10.3937 140.722 11.3154C141.669 11.4636 142.384 11.8586 142.881 12.5006H142.865ZM125.581 3.11843V10.0974H135.519C136.451 10.0974 137.212 10.0316 137.833 9.91636C138.455 9.80114 138.983 9.4884 139.433 8.97814C139.883 8.46789 140.116 7.67782 140.116 6.59146C140.116 5.50511 139.883 4.74796 139.433 4.2377C138.983 3.72744 138.439 3.41471 137.833 3.29949C137.228 3.18427 136.451 3.11843 135.519 3.11843H125.581Z" fill="#484D54"/>
<path d="M149.106 -0.140625H170.754V3.15135L154.541 16.8953H170.754V20.1873H149.106V16.8953L165.319 3.15135H149.106V-0.140625Z" fill="#484D54"/>
<path d="M0 29.0596H21.6478V32.3515L5.4346 46.0955H21.6478V49.3875H0V46.0955L16.2132 32.3515H0V29.0596Z" fill="#484D54"/>
<path d="M45.8992 30.1953C47.3118 30.9525 48.4453 32.0882 49.2998 33.6025C50.1384 35.1333 50.5743 37.0097 50.5743 39.2482C50.5743 41.4868 50.1542 43.3303 49.2998 44.861C48.4453 46.3918 47.3276 47.5276 45.8992 48.2682C44.4708 49.009 42.9014 49.4039 41.1464 49.4039H27.4189V29.0596H41.1464C42.9014 29.0596 44.4708 29.4381 45.8992 30.1953ZM39.3771 46.112C41.132 46.112 42.5288 45.9145 43.6005 45.5359C44.6721 45.1574 45.4647 44.466 46.0229 43.462C46.5666 42.4744 46.8471 41.0588 46.8471 39.2482C46.8471 37.4376 46.5666 36.0056 46.0229 35.0016C45.4806 34.014 44.6721 33.3227 43.6005 32.9276C42.5288 32.5491 41.132 32.3515 39.3771 32.3515H30.913V46.0955H39.3771V46.112Z" fill="#484D54"/>
<path d="M59.1462 47.1159C57.0647 45.2066 56.0391 42.5731 56.0391 39.2152C56.0391 35.8574 57.0805 33.2238 59.1462 31.331C61.2262 29.4381 64.3017 28.4834 68.4014 28.4834C72.5011 28.4834 75.5608 29.4381 77.6264 31.331C79.7065 33.2238 80.7321 35.8574 80.7321 39.2152C80.7321 42.5731 79.6907 45.2066 77.6264 47.1159C75.5449 49.0253 72.4695 49.98 68.4014 49.98C64.3319 49.98 61.2262 49.0253 59.1462 47.1159ZM77.005 39.2152C77.005 34.2608 74.1324 31.7754 68.4014 31.7754C65.5906 31.7754 63.4631 32.3679 62.003 33.5695C60.543 34.7711 59.7978 36.6475 59.7978 39.2152C59.7978 44.1861 62.6705 46.688 68.4014 46.688C74.1324 46.688 77.005 44.2026 77.005 39.2152Z" fill="#484D54"/>
<path d="M107.234 41.7008C107.73 42.3427 107.963 43.1821 107.963 44.2191V49.4039H104.501V45.1244C104.501 44.4166 104.423 43.8734 104.284 43.5113C104.143 43.1492 103.879 42.9024 103.507 42.7542C103.134 42.606 102.575 42.5402 101.83 42.5402H89.9492V49.4039H86.4551V29.0596H100.79C103.134 29.0596 104.967 29.5534 106.27 30.5574C107.575 31.545 108.228 33.0922 108.228 35.1991C108.228 37.8162 107.187 39.5939 105.091 40.5156C106.039 40.6638 106.752 41.0588 107.25 41.7008H107.234ZM89.9492 32.3186V39.2976H99.8877C100.82 39.2976 101.581 39.2318 102.202 39.1166C102.824 39.0013 103.352 38.6886 103.802 38.1783C104.252 37.6681 104.485 36.878 104.485 35.7917C104.485 34.7053 104.252 33.9482 103.802 33.4379C103.352 32.9276 102.808 32.6149 102.202 32.4997C101.597 32.3845 100.82 32.3186 99.8877 32.3186H89.9492Z" fill="#484D54"/>
<path d="M136.188 29.0596V32.3515H126.202V49.4039H122.739V32.368H112.722V29.0596H136.202H136.188Z" fill="#484D54"/>
<path d="M29.0918 58.041V78.3854H25.5978V61.4317L15.8765 78.3854H12.6773L2.95596 61.4317V78.3854H-0.539551V58.041H4.94253L14.2769 74.1388L23.5939 58.041H29.076H29.0918Z" fill="#484D54"/>
<path d="M60.6748 78.3854H56.7147L54.3397 73.9906H40.3936L38.0172 78.3854H34.0269L45.1464 58.041H49.5711L60.6906 78.3854H60.6748ZM47.3516 61.1025L42.1025 70.7974H52.5848L47.3357 61.1025H47.3516Z" fill="#484D54"/>
<path d="M86.4225 70.6822C86.9202 71.3241 87.1518 72.1636 87.1518 73.2006V78.3854H83.6894V74.1059C83.6894 73.398 83.6117 72.8549 83.4722 72.4927C83.3326 72.1306 83.0679 71.8838 82.6954 71.7356C82.3228 71.5875 81.7633 71.5216 81.0181 71.5216H69.1377V78.3854H65.6436V58.041H79.9781C82.3228 58.041 84.1554 58.5348 85.4601 59.5389C86.7648 60.5265 87.4165 62.0737 87.4165 64.1805C87.4165 66.7977 86.3765 68.5753 84.2792 69.4971C85.2271 69.6452 85.9406 70.0403 86.4383 70.6822H86.4225ZM69.1377 61.3001V68.2791H79.0776C80.0083 68.2791 80.7692 68.2132 81.3906 68.098C82.0121 67.9828 82.54 67.67 82.9902 67.1598C83.4405 66.6495 83.6735 65.8595 83.6735 64.7731C83.6735 63.6868 83.4405 62.9296 82.9902 62.4193C82.54 61.9091 81.9962 61.5964 81.3906 61.4811C80.785 61.3659 80.0083 61.3001 79.0776 61.3001H69.1377Z" fill="#484D54"/>
<path d="M117.035 68.493C117.035 72.0483 116.073 74.682 114.147 76.3938C112.222 78.1057 109.178 78.9615 105.031 78.9615C100.885 78.9615 97.8257 78.1057 95.8995 76.3938C93.9734 74.682 93.0269 72.0483 93.0269 68.4766V58.041H96.5209V68.4272C96.5209 69.7769 96.7079 70.962 97.0949 71.999C97.4833 73.0359 98.2917 73.8919 99.5489 74.5997C100.808 75.3074 102.64 75.653 105.031 75.653C107.423 75.653 109.256 75.291 110.513 74.5832C111.77 73.8754 112.595 73.0031 112.983 71.9661C113.37 70.9291 113.573 69.744 113.573 68.4272V58.041H117.035V68.493Z" fill="#484D54"/>
<path d="M146.024 58.041V61.333H136.038V78.3854H132.575V61.3495H122.558V58.041H146.038H146.024Z" fill="#484D54"/>
<path d="M170.875 78.3854H166.914L164.539 73.9906H150.593L148.217 78.3854H144.227L155.345 58.041H159.771L170.89 78.3854H170.875ZM157.55 61.1025L152.302 70.7974H162.784L157.535 61.1025H157.55Z" fill="#484D54"/>
</g>
<defs>
<clipPath id="clip0_70_1277">
<rect width="171" height="79" fill="white"/>
</clipPath>
</defs>
</svg>
