<svg width="567" height="66" viewBox="0 0 567 66" fill="none" xmlns="http://www.w3.org/2000/svg">
<g clip-path="url(#clip0_52_1450)">
<path opacity="0.6" fill-rule="evenodd" clip-rule="evenodd" d="M222.061 10.6259V19.6019C222.061 20.9879 222.282 22.3959 223.168 23.5179C224.231 24.9039 226.092 25.6299 227.996 25.6299C229.901 25.6299 231.762 24.9039 232.825 23.5179C233.711 22.3959 233.932 20.9879 233.932 19.6019V10.6259H231.053V19.8439C231.053 20.9659 230.676 21.6479 230.344 22.0219C229.923 22.5279 229.148 23.0339 227.996 23.0339C226.845 23.0339 226.069 22.5279 225.649 22.0219C225.316 21.6479 224.94 20.9659 224.94 19.8439V10.6259H222.061ZM241.064 10.6259H238.185V25.2999H241.064V19.0519L241.396 18.7219L246.645 25.2999H250.455L243.877 17.4019L250.123 10.6259H246.49L241.064 16.8299V10.6259ZM253.157 10.6259V25.2999H256.036V19.4039H256.391L260.333 25.2999H263.921L259.314 19.1179C260.023 18.9859 260.555 18.7439 260.931 18.4799C262.083 17.7099 262.659 16.4559 262.659 15.0259C262.659 13.9259 262.326 12.6719 261.197 11.7259C260.51 11.1539 259.469 10.6259 257.432 10.6259H253.157ZM256.036 12.9579H256.9C257.432 12.9579 259.691 12.9799 259.691 15.1579C259.691 17.3139 257.409 17.3799 256.856 17.3799H256.036V12.9579ZM276.811 25.2999H279.912L273.733 10.6259H271.474L265.117 25.2999H268.24L269.547 22.2199H275.505L276.811 25.2999ZM270.455 19.8879L272.559 14.6079L274.663 19.8879H270.455ZM282.526 10.6259V25.2999H285.405V10.6259H282.526ZM292.537 25.2999V15.4879L301.529 25.2999H303.522V10.6259H300.643V20.4159L291.651 10.6259H289.658V25.2999H292.537ZM307.775 10.6259V25.2999H310.654V10.6259H307.775ZM324.962 25.2999H328.063L321.884 10.6259H319.624L313.268 25.2999H316.391L317.698 22.2199H323.655L324.962 25.2999ZM318.606 19.8879L320.71 14.6079L322.814 19.8879H318.606ZM333.556 25.2999V15.4879L342.548 25.2999H344.541V10.6259H341.662V20.4159L332.67 10.6259H330.676V25.2999H333.556ZM353.201 10.6259L359.403 25.2999H361.131L367.376 10.6259H364.231L360.289 20.4819L356.347 10.6259H353.201ZM378.185 10.6259H369.99V25.2999H378.185V22.8359H372.869V18.8319H377.963V16.3679H372.869V13.0899H378.185V10.6259ZM384.741 25.2999V15.4879L393.733 25.2999H395.726V10.6259H392.847V20.4159L383.855 10.6259H381.862V25.2999H384.741ZM407.952 13.0899V10.6259H398.429V13.0899H401.751V25.2999H404.63V13.0899H407.952ZM410.654 10.6259V19.6019C410.654 20.9879 410.876 22.3959 411.762 23.5179C412.825 24.9039 414.686 25.6299 416.59 25.6299C418.495 25.6299 420.356 24.9039 421.419 23.5179C422.305 22.3959 422.526 20.9879 422.526 19.6019V10.6259H419.647V19.8439C419.647 20.9659 419.27 21.6479 418.938 22.0219C418.517 22.5279 417.742 23.0339 416.59 23.0339C415.439 23.0339 414.663 22.5279 414.243 22.0219C413.91 21.6479 413.534 20.9659 413.534 19.8439V10.6259H410.654ZM426.779 10.6259V25.2999H429.658V19.4039H430.012L433.955 25.2999H437.543L432.936 19.1179C433.645 18.9859 434.176 18.7439 434.553 18.4799C435.704 17.7099 436.28 16.4559 436.28 15.0259C436.28 13.9259 435.948 12.6719 434.818 11.7259C434.132 11.1539 433.091 10.6259 431.053 10.6259H426.779ZM429.658 12.9579H430.522C431.053 12.9579 433.312 12.9799 433.312 15.1579C433.312 17.3139 431.031 17.3799 430.477 17.3799H429.658V12.9579ZM448.573 10.6259H440.378V25.2999H448.573V22.8359H443.257V18.8319H448.351V16.3679H443.257V13.0899H448.573V10.6259ZM469.016 21.4279C468.152 22.4399 466.934 23.0339 465.56 23.0339C463.08 23.0339 460.555 21.2739 460.555 18.0179C460.555 15.3119 462.482 12.8919 465.45 12.8919C465.981 12.8919 467.665 13.0019 469.016 14.5419V11.1979C467.665 10.4719 466.424 10.2959 465.383 10.2959C463.279 10.2959 461.441 10.8459 459.957 12.2319C458.694 13.3979 457.587 15.3119 457.587 17.9739C457.587 20.1299 458.251 21.9559 459.957 23.5839C461.197 24.7499 462.77 25.6299 465.361 25.6299C466.956 25.6299 468.13 25.2339 469.016 24.7719V21.4279ZM482.615 25.2999H485.716L479.536 10.6259H477.277L470.92 25.2999H474.043L475.35 22.2199H481.308L482.615 25.2999ZM476.258 19.8879L478.362 14.6079L480.466 19.8879H476.258ZM488.329 10.6259V25.2999H491.208V19.8659H493.069C494.774 19.8659 495.992 19.3819 496.812 18.5679C497.941 17.4459 498.03 15.8619 498.03 15.2899C498.03 14.2339 497.72 12.8039 496.524 11.7479C495.439 10.8019 494.287 10.6259 492.626 10.6259H488.329ZM491.208 13.0899H492.205C492.892 13.0899 493.645 13.1339 494.243 13.5519C494.663 13.8599 495.062 14.4099 495.062 15.2239C495.062 15.8619 494.796 16.5219 494.265 16.9399C493.645 17.4019 492.936 17.4019 492.382 17.4019H491.208V13.0899ZM501.042 10.6259V25.2999H503.922V10.6259H501.042ZM516.147 13.0899V10.6259H506.624V13.0899H509.946V25.2999H512.825V13.0899H516.147ZM528.041 25.2999H531.142L524.963 10.6259H522.703L516.347 25.2999H519.47L520.777 22.2199H526.734L528.041 25.2999ZM521.685 19.8879L523.789 14.6079L525.893 19.8879H521.685ZM533.756 10.6259V25.2999H541.197V22.8359H536.635V10.6259H533.756ZM561.242 18.1719C560.932 18.5899 560.4 19.2279 559.403 20.1959L556.967 17.4239L557.587 17.0499C559.16 16.1039 559.669 14.8499 559.669 13.7939C559.669 11.9899 558.274 10.2959 555.705 10.2959C552.958 10.2959 551.629 12.1219 551.629 13.9479C551.629 15.3779 552.604 16.5219 553.113 17.0279L551.962 17.7099C551.297 18.1059 549.592 19.2499 549.592 21.4279C549.592 23.5399 551.186 25.6299 554.221 25.6299C556.568 25.6299 558.296 24.2659 558.983 23.6499L560.422 25.2999H563.988L560.998 21.9339L561.33 21.6039C561.751 21.1859 562.039 20.9219 562.925 19.8219L561.242 18.1719ZM557.366 21.8459C556.878 22.3299 555.837 23.1219 554.641 23.1219C553.401 23.1219 552.471 22.2859 552.471 21.1859C552.471 20.0639 553.445 19.2499 554.575 18.6559L557.366 21.8459ZM554.952 15.1139C554.641 14.7399 554.331 14.2779 554.331 13.7279C554.331 13.0679 554.797 12.3639 555.838 12.3639C556.834 12.3639 557.277 13.0899 557.277 13.8159C557.277 14.2999 557.056 14.8939 556.258 15.4439L555.594 15.9059L554.952 15.1139ZM222.061 39.2259V53.8999H224.94V48.4659H226.8C228.506 48.4659 229.724 47.9819 230.543 47.1679C231.673 46.0459 231.762 44.4619 231.762 43.8899C231.762 42.8339 231.451 41.4039 230.255 40.3479C229.17 39.4019 228.018 39.2259 226.357 39.2259H222.061ZM224.94 41.6899H225.937C226.623 41.6899 227.376 41.7339 227.974 42.1519C228.395 42.4599 228.794 43.0099 228.794 43.8239C228.794 44.4619 228.528 45.1219 227.996 45.5399C227.376 46.0019 226.667 46.0019 226.114 46.0019H224.94V41.6899ZM234.774 39.2259V53.8999H237.653V48.0039H238.007L241.95 53.8999H245.538L240.931 47.7179C241.64 47.5859 242.171 47.3439 242.548 47.0799C243.7 46.3099 244.275 45.0559 244.275 43.6259C244.275 42.5259 243.943 41.2719 242.814 40.3259C242.127 39.7539 241.086 39.2259 239.048 39.2259H234.774ZM237.653 41.5579H238.517C239.048 41.5579 241.308 41.5799 241.308 43.7579C241.308 45.9139 239.026 45.9799 238.473 45.9799H237.653V41.5579ZM248.373 39.2259V53.8999H251.252V39.2259H248.373ZM253.866 39.2259L260.067 53.8999H261.795L268.041 39.2259H264.896L260.953 49.0819L257.011 39.2259H253.866ZM279.336 53.8999H282.437L276.258 39.2259H273.999L267.642 53.8999H270.765L272.072 50.8199H278.03L279.336 53.8999ZM272.98 48.4879L275.084 43.2079L277.188 48.4879H272.98ZM292.271 41.6899V39.2259H282.747V41.6899H286.07V53.8999H288.949V41.6899H292.271ZM303.168 39.2259H294.973V53.8999H303.168V51.4359H297.852V47.4319H302.947V44.9679H297.852V41.6899H303.168V39.2259ZM321.086 39.2259H312.891V53.8999H321.086V51.4359H315.771V47.4319H320.865V44.9679H315.771V41.6899H321.086V39.2259ZM337.365 54.4719L340.267 54.1859L337.875 51.7879C338.672 50.9079 339.824 49.3239 339.824 46.5739C339.824 42.1079 336.59 38.8959 331.939 38.8959C327.288 38.8959 324.054 42.1079 324.054 46.5739C324.054 51.0619 327.288 54.2299 331.939 54.2299C333.578 54.2299 334.84 53.9439 336.147 53.1739L337.365 54.4719ZM334.176 48.0039L331.186 48.2459L334.198 51.1499C333.667 51.4139 333.002 51.6339 332.005 51.6339C329.037 51.6339 327.022 49.5219 327.022 46.5739C327.022 43.6039 329.06 41.4919 331.939 41.4919C334.818 41.4919 336.856 43.6039 336.856 46.5739C336.856 48.2019 336.346 49.1259 335.881 49.7419L334.176 48.0039ZM343.368 39.2259V48.2019C343.368 49.5879 343.589 50.9959 344.475 52.1179C345.538 53.5039 347.399 54.2299 349.303 54.2299C351.208 54.2299 353.069 53.5039 354.132 52.1179C355.018 50.9959 355.239 49.5879 355.239 48.2019V39.2259H352.36V48.4439C352.36 49.5659 351.983 50.2479 351.651 50.6219C351.23 51.1279 350.455 51.6339 349.303 51.6339C348.152 51.6339 347.376 51.1279 346.956 50.6219C346.623 50.2479 346.247 49.5659 346.247 48.4439V39.2259H343.368ZM359.492 39.2259V53.8999H362.371V39.2259H359.492ZM374.597 41.6899V39.2259H365.073V41.6899H368.395V53.8999H371.275V41.6899H374.597ZM381.33 53.8999H384.209V47.1899L389.414 39.2259H386.003L382.836 44.3299L379.669 39.2259H376.258L381.33 47.1899V53.8999ZM408.041 53.8999H411.142L404.962 39.2259H402.703L396.347 53.8999H399.47L400.776 50.8199H406.734L408.041 53.8999ZM401.684 48.4879L403.788 43.2079L405.893 48.4879H401.684ZM422.061 40.6119C420.555 39.0719 418.805 38.8959 417.875 38.8959C414.597 38.8959 413.135 41.0519 413.135 43.2079C413.135 44.7039 413.822 45.5179 414.309 45.9359C415.062 46.5959 415.992 46.9479 416.767 47.2119C417.609 47.4979 418.495 47.7839 419.049 48.2899C419.447 48.6639 419.625 49.0819 419.625 49.6099C419.625 50.8419 418.65 51.6339 417.343 51.6339C416.302 51.6339 414.951 51.1059 414.243 49.6759L412.36 51.4579C413.135 52.5799 414.73 54.2299 417.454 54.2299C420.511 54.2299 422.592 52.2719 422.592 49.4119C422.592 47.9159 421.994 46.9259 421.33 46.3319C420.577 45.6499 419.492 45.2539 418.34 44.8579C417.41 44.5279 416.923 44.3519 416.568 44.0219C416.214 43.7139 416.103 43.3839 416.103 43.0319C416.103 42.2839 416.59 41.3159 418.141 41.3159C418.672 41.3159 419.691 41.4259 420.555 42.5699L422.061 40.6119ZM434.331 40.6119C432.825 39.0719 431.075 38.8959 430.145 38.8959C426.867 38.8959 425.405 41.0519 425.405 43.2079C425.405 44.7039 426.092 45.5179 426.579 45.9359C427.332 46.5959 428.263 46.9479 429.038 47.2119C429.879 47.4979 430.765 47.7839 431.319 48.2899C431.718 48.6639 431.895 49.0819 431.895 49.6099C431.895 50.8419 430.92 51.6339 429.614 51.6339C428.573 51.6339 427.222 51.1059 426.513 49.6759L424.63 51.4579C425.405 52.5799 427 54.2299 429.724 54.2299C432.781 54.2299 434.863 52.2719 434.863 49.4119C434.863 47.9159 434.265 46.9259 433.6 46.3319C432.847 45.6499 431.762 45.2539 430.61 44.8579C429.68 44.5279 429.193 44.3519 428.838 44.0219C428.484 43.7139 428.373 43.3839 428.373 43.0319C428.373 42.2839 428.861 41.3159 430.411 41.3159C430.942 41.3159 431.961 41.4259 432.825 42.5699L434.331 40.6119ZM445.45 38.8959C440.799 38.8959 437.565 42.1079 437.565 46.5739C437.565 51.0399 440.799 54.2299 445.45 54.2299C450.101 54.2299 453.335 51.0399 453.335 46.5739C453.335 42.1079 450.101 38.8959 445.45 38.8959ZM445.45 51.6339C442.57 51.6339 440.533 49.5439 440.533 46.5739C440.533 43.6039 442.57 41.4919 445.45 41.4919C448.329 41.4919 450.367 43.6039 450.367 46.5739C450.367 49.5439 448.329 51.6339 445.45 51.6339ZM467.598 50.0279C466.734 51.0399 465.516 51.6339 464.143 51.6339C461.662 51.6339 459.137 49.8739 459.137 46.6179C459.137 43.9119 461.064 41.4919 464.032 41.4919C464.564 41.4919 466.247 41.6019 467.598 43.1419V39.7979C466.247 39.0719 465.007 38.8959 463.966 38.8959C461.862 38.8959 460.023 39.4459 458.539 40.8319C457.277 41.9979 456.17 43.9119 456.17 46.5739C456.17 48.7299 456.834 50.5559 458.539 52.1839C459.78 53.3499 461.352 54.2299 463.944 54.2299C465.538 54.2299 466.712 53.8339 467.598 53.3719V50.0279ZM471.142 39.2259V53.8999H474.021V39.2259H471.142ZM488.329 53.8999H491.43L485.25 39.2259H482.991L476.635 53.8999H479.758L481.064 50.8199H487.022L488.329 53.8999ZM481.972 48.4879L484.077 43.2079L486.181 48.4879H481.972ZM501.264 41.6899V39.2259H491.74V41.6899H495.062V53.8999H497.941V41.6899H501.264ZM503.966 39.2259V53.8999H506.845V39.2259H503.966ZM518.274 38.8959C513.623 38.8959 510.389 42.1079 510.389 46.5739C510.389 51.0399 513.623 54.2299 518.274 54.2299C522.925 54.2299 526.159 51.0399 526.159 46.5739C526.159 42.1079 522.925 38.8959 518.274 38.8959ZM518.274 51.6339C515.394 51.6339 513.357 49.5439 513.357 46.5739C513.357 43.6039 515.394 41.4919 518.274 41.4919C521.153 41.4919 523.191 43.6039 523.191 46.5739C523.191 49.5439 521.153 51.6339 518.274 51.6339ZM532.582 53.8999V44.0879L541.574 53.8999H543.567V39.2259H540.688V49.0159L531.696 39.2259H529.702V53.8999H532.582Z" fill="#484D54"/>
<path d="M187.155 -1.09961H184.94V64.9004H187.155V-1.09961Z" fill="#484D54"/>
<path fill-rule="evenodd" clip-rule="evenodd" d="M-0.487061 9.87769V36.8057C-0.487061 40.9637 0.177392 45.1877 2.8352 48.5537C6.02458 52.7117 11.606 54.8897 17.3203 54.8897C23.0346 54.8897 28.616 52.7117 31.8054 48.5537C34.4632 45.1877 35.1276 40.9637 35.1276 36.8057V9.87769H26.4897V37.5317C26.4897 40.8977 25.3602 42.9437 24.3635 44.0657C23.101 45.5837 20.7754 47.1017 17.3203 47.1017C13.8651 47.1017 11.5395 45.5837 10.2771 44.0657C9.2804 42.9437 8.15083 40.8977 8.15083 37.5317V9.87769H-0.487061ZM38.0955 9.87769L56.7002 53.8997H61.8829L80.6205 9.87769H71.1853L59.358 39.4457L47.5307 9.87769H38.0955ZM115.748 42.2837C113.157 45.3197 109.502 47.1017 105.382 47.1017C97.9406 47.1017 90.3658 41.8217 90.3658 32.0537C90.3658 23.9357 96.1466 16.6757 105.05 16.6757C106.645 16.6757 111.695 17.0057 115.748 21.6257V11.5937C111.695 9.4157 107.974 8.8877 104.851 8.8877C98.5386 8.8877 93.0236 10.5377 88.5718 14.6957C84.7844 18.1937 81.4622 23.9357 81.4622 31.9217C81.4622 38.3897 83.4555 43.8677 88.5718 48.7517C92.2927 52.2497 97.0104 54.8897 104.784 54.8897C109.569 54.8897 113.09 53.7017 115.748 52.3157V42.2837ZM151.673 53.8997H160.975L142.437 9.87769H135.659L116.59 53.8997H125.958L129.879 44.6597H147.752L151.673 53.8997ZM132.603 37.6637L138.915 21.8237L145.227 37.6637H132.603Z" fill="#484D54"/>
</g>
<defs>
<clipPath id="clip0_52_1450">
<rect width="567" height="66" fill="white"/>
</clipPath>
</defs>
</svg>
